<svg version="1.1" xmlns="http://www.w3.org/2000/svg" xmlns:xlink="http://www.w3.org/1999/xlink" stroke-linecap="round" stroke-linejoin="round" stroke-width="0" fill-rule="evenodd" width="29.786mm" height="24.615599999999997mm" viewBox="1121.8 1092.2 29786 24615.6" id="KVMPEUxcN-XwN-rIKumj"><defs><rect x="-330.2" y="-1016" width="660.4" height="2032" id="KVMPEUxcN-XwN-rIKumj_pad-10"/><circle cx="0" cy="0" r="900" id="KVMPEUxcN-XwN-rIKumj_pad-11"/><rect x="-345" y="-495" width="690" height="990" id="KVMPEUxcN-XwN-rIKumj_pad-12"/><rect x="-775" y="-300" width="1550" height="600" id="KVMPEUxcN-XwN-rIKumj_pad-13"/><rect x="-600" y="-300" width="1200" height="600" id="KVMPEUxcN-XwN-rIKumj_pad-14"/><circle cx="0" cy="0" r="378.2" id="KVMPEUxcN-XwN-rIKumj_pad-16"/></defs><g transform="translate(0,26800) scale(1,-1)" fill="currentColor" stroke="currentColor"><use xlink:href="#KVMPEUxcN-XwN-rIKumj_pad-10" x="1590" y="16526.6"/><use xlink:href="#KVMPEUxcN-XwN-rIKumj_pad-10" x="1590" y="22673.4"/><use xlink:href="#KVMPEUxcN-XwN-rIKumj_pad-10" x="2860" y="16526.6"/><use xlink:href="#KVMPEUxcN-XwN-rIKumj_pad-10" x="4130" y="16526.6"/><use xlink:href="#KVMPEUxcN-XwN-rIKumj_pad-10" x="2860" y="22673.4"/><use xlink:href="#KVMPEUxcN-XwN-rIKumj_pad-10" x="4130" y="22673.4"/><use xlink:href="#KVMPEUxcN-XwN-rIKumj_pad-10" x="5400" y="16526.6"/><use xlink:href="#KVMPEUxcN-XwN-rIKumj_pad-10" x="5400" y="22673.4"/><use xlink:href="#KVMPEUxcN-XwN-rIKumj_pad-10" x="6670" y="16526.6"/><use xlink:href="#KVMPEUxcN-XwN-rIKumj_pad-10" x="7940" y="16526.6"/><use xlink:href="#KVMPEUxcN-XwN-rIKumj_pad-10" x="6670" y="22673.4"/><use xlink:href="#KVMPEUxcN-XwN-rIKumj_pad-10" x="7940" y="22673.4"/><use xlink:href="#KVMPEUxcN-XwN-rIKumj_pad-10" x="9210" y="16526.6"/><use xlink:href="#KVMPEUxcN-XwN-rIKumj_pad-10" x="9210" y="22673.4"/><use xlink:href="#KVMPEUxcN-XwN-rIKumj_pad-11" x="11710" y="15990"/><use xlink:href="#KVMPEUxcN-XwN-rIKumj_pad-11" x="14250" y="15990"/><use xlink:href="#KVMPEUxcN-XwN-rIKumj_pad-11" x="16790" y="15990"/><use xlink:href="#KVMPEUxcN-XwN-rIKumj_pad-11" x="19330" y="15990"/><use xlink:href="#KVMPEUxcN-XwN-rIKumj_pad-11" x="21870" y="15990"/><use xlink:href="#KVMPEUxcN-XwN-rIKumj_pad-11" x="24410" y="15990"/><use xlink:href="#KVMPEUxcN-XwN-rIKumj_pad-11" x="26950" y="15990"/><use xlink:href="#KVMPEUxcN-XwN-rIKumj_pad-11" x="29490" y="15990"/><use xlink:href="#KVMPEUxcN-XwN-rIKumj_pad-11" x="29490" y="23610"/><use xlink:href="#KVMPEUxcN-XwN-rIKumj_pad-11" x="26950" y="23610"/><use xlink:href="#KVMPEUxcN-XwN-rIKumj_pad-11" x="24410" y="23610"/><use xlink:href="#KVMPEUxcN-XwN-rIKumj_pad-11" x="21870" y="23610"/><use xlink:href="#KVMPEUxcN-XwN-rIKumj_pad-11" x="19330" y="23610"/><use xlink:href="#KVMPEUxcN-XwN-rIKumj_pad-11" x="16790" y="23610"/><use xlink:href="#KVMPEUxcN-XwN-rIKumj_pad-11" x="14250" y="23610"/><use xlink:href="#KVMPEUxcN-XwN-rIKumj_pad-11" x="11710" y="23610"/><use xlink:href="#KVMPEUxcN-XwN-rIKumj_pad-12" x="22250" y="21090"/><use xlink:href="#KVMPEUxcN-XwN-rIKumj_pad-12" x="21300" y="21090"/><use xlink:href="#KVMPEUxcN-XwN-rIKumj_pad-12" x="20350" y="21090"/><use xlink:href="#KVMPEUxcN-XwN-rIKumj_pad-12" x="20350" y="18500"/><use xlink:href="#KVMPEUxcN-XwN-rIKumj_pad-12" x="22250" y="18500"/><use xlink:href="#KVMPEUxcN-XwN-rIKumj_pad-13" x="24200" y="21705"/><use xlink:href="#KVMPEUxcN-XwN-rIKumj_pad-13" x="24200" y="20435"/><use xlink:href="#KVMPEUxcN-XwN-rIKumj_pad-13" x="24200" y="19165"/><use xlink:href="#KVMPEUxcN-XwN-rIKumj_pad-13" x="24200" y="17895"/><use xlink:href="#KVMPEUxcN-XwN-rIKumj_pad-13" x="29600" y="17895"/><use xlink:href="#KVMPEUxcN-XwN-rIKumj_pad-13" x="29600" y="19165"/><use xlink:href="#KVMPEUxcN-XwN-rIKumj_pad-13" x="29600" y="20435"/><use xlink:href="#KVMPEUxcN-XwN-rIKumj_pad-13" x="29600" y="21705"/><use xlink:href="#KVMPEUxcN-XwN-rIKumj_pad-14" x="17300" y="17895"/><use xlink:href="#KVMPEUxcN-XwN-rIKumj_pad-14" x="17300" y="19165"/><use xlink:href="#KVMPEUxcN-XwN-rIKumj_pad-14" x="17300" y="20435"/><use xlink:href="#KVMPEUxcN-XwN-rIKumj_pad-14" x="17300" y="21705"/><use xlink:href="#KVMPEUxcN-XwN-rIKumj_pad-14" x="11700" y="21705"/><use xlink:href="#KVMPEUxcN-XwN-rIKumj_pad-14" x="11700" y="20435"/><use xlink:href="#KVMPEUxcN-XwN-rIKumj_pad-14" x="11700" y="19165"/><use xlink:href="#KVMPEUxcN-XwN-rIKumj_pad-14" x="11700" y="17895"/><use xlink:href="#KVMPEUxcN-XwN-rIKumj_pad-10" x="1590" y="3826.6"/><use xlink:href="#KVMPEUxcN-XwN-rIKumj_pad-10" x="1590" y="9973.4"/><use xlink:href="#KVMPEUxcN-XwN-rIKumj_pad-10" x="2860" y="3826.6"/><use xlink:href="#KVMPEUxcN-XwN-rIKumj_pad-10" x="4130" y="3826.6"/><use xlink:href="#KVMPEUxcN-XwN-rIKumj_pad-10" x="2860" y="9973.4"/><use xlink:href="#KVMPEUxcN-XwN-rIKumj_pad-10" x="4130" y="9973.4"/><use xlink:href="#KVMPEUxcN-XwN-rIKumj_pad-10" x="5400" y="3826.6"/><use xlink:href="#KVMPEUxcN-XwN-rIKumj_pad-10" x="5400" y="9973.4"/><use xlink:href="#KVMPEUxcN-XwN-rIKumj_pad-10" x="6670" y="3826.6"/><use xlink:href="#KVMPEUxcN-XwN-rIKumj_pad-10" x="7940" y="3826.6"/><use xlink:href="#KVMPEUxcN-XwN-rIKumj_pad-10" x="6670" y="9973.4"/><use xlink:href="#KVMPEUxcN-XwN-rIKumj_pad-10" x="7940" y="9973.4"/><use xlink:href="#KVMPEUxcN-XwN-rIKumj_pad-10" x="9210" y="3826.6"/><use xlink:href="#KVMPEUxcN-XwN-rIKumj_pad-10" x="9210" y="9973.4"/><use xlink:href="#KVMPEUxcN-XwN-rIKumj_pad-11" x="11710" y="3290"/><use xlink:href="#KVMPEUxcN-XwN-rIKumj_pad-11" x="14250" y="3290"/><use xlink:href="#KVMPEUxcN-XwN-rIKumj_pad-11" x="16790" y="3290"/><use xlink:href="#KVMPEUxcN-XwN-rIKumj_pad-11" x="19330" y="3290"/><use xlink:href="#KVMPEUxcN-XwN-rIKumj_pad-11" x="21870" y="3290"/><use xlink:href="#KVMPEUxcN-XwN-rIKumj_pad-11" x="24410" y="3290"/><use xlink:href="#KVMPEUxcN-XwN-rIKumj_pad-11" x="26950" y="3290"/><use xlink:href="#KVMPEUxcN-XwN-rIKumj_pad-11" x="29490" y="3290"/><use xlink:href="#KVMPEUxcN-XwN-rIKumj_pad-11" x="29490" y="10910"/><use xlink:href="#KVMPEUxcN-XwN-rIKumj_pad-11" x="26950" y="10910"/><use xlink:href="#KVMPEUxcN-XwN-rIKumj_pad-11" x="24410" y="10910"/><use xlink:href="#KVMPEUxcN-XwN-rIKumj_pad-11" x="21870" y="10910"/><use xlink:href="#KVMPEUxcN-XwN-rIKumj_pad-11" x="19330" y="10910"/><use xlink:href="#KVMPEUxcN-XwN-rIKumj_pad-11" x="16790" y="10910"/><use xlink:href="#KVMPEUxcN-XwN-rIKumj_pad-11" x="14250" y="10910"/><use xlink:href="#KVMPEUxcN-XwN-rIKumj_pad-11" x="11710" y="10910"/><use xlink:href="#KVMPEUxcN-XwN-rIKumj_pad-12" x="22250" y="8390"/><use xlink:href="#KVMPEUxcN-XwN-rIKumj_pad-12" x="21300" y="8390"/><use xlink:href="#KVMPEUxcN-XwN-rIKumj_pad-12" x="20350" y="8390"/><use xlink:href="#KVMPEUxcN-XwN-rIKumj_pad-12" x="20350" y="5800"/><use xlink:href="#KVMPEUxcN-XwN-rIKumj_pad-12" x="22250" y="5800"/><use xlink:href="#KVMPEUxcN-XwN-rIKumj_pad-13" x="24200" y="9005"/><use xlink:href="#KVMPEUxcN-XwN-rIKumj_pad-13" x="24200" y="7735"/><use xlink:href="#KVMPEUxcN-XwN-rIKumj_pad-13" x="24200" y="6465"/><use xlink:href="#KVMPEUxcN-XwN-rIKumj_pad-13" x="24200" y="5195"/><use xlink:href="#KVMPEUxcN-XwN-rIKumj_pad-13" x="29600" y="5195"/><use xlink:href="#KVMPEUxcN-XwN-rIKumj_pad-13" x="29600" y="6465"/><use xlink:href="#KVMPEUxcN-XwN-rIKumj_pad-13" x="29600" y="7735"/><use xlink:href="#KVMPEUxcN-XwN-rIKumj_pad-13" x="29600" y="9005"/><use xlink:href="#KVMPEUxcN-XwN-rIKumj_pad-14" x="17300" y="5195"/><use xlink:href="#KVMPEUxcN-XwN-rIKumj_pad-14" x="17300" y="6465"/><use xlink:href="#KVMPEUxcN-XwN-rIKumj_pad-14" x="17300" y="7735"/><use xlink:href="#KVMPEUxcN-XwN-rIKumj_pad-14" x="17300" y="9005"/><use xlink:href="#KVMPEUxcN-XwN-rIKumj_pad-14" x="11700" y="9005"/><use xlink:href="#KVMPEUxcN-XwN-rIKumj_pad-14" x="11700" y="7735"/><use xlink:href="#KVMPEUxcN-XwN-rIKumj_pad-14" x="11700" y="6465"/><use xlink:href="#KVMPEUxcN-XwN-rIKumj_pad-14" x="11700" y="5195"/><path d="M 23655 17895 24200 17895 M 23655 17895 23050 18500 22250 18500 M 1590 22673.4 1590 23890" fill="none" stroke-width="406.4"/><use xlink:href="#KVMPEUxcN-XwN-rIKumj_pad-16" x="2800" y="25100"/><path d="M 2800 25100 1590 23890" fill="none" stroke-width="406.4"/><use xlink:href="#KVMPEUxcN-XwN-rIKumj_pad-16" x="20914.01" y="19576.4"/><path d="M 22250 18600 22250 18500 M 21273.6 19576.4 20914.01 19576.4 M 21273.6 19576.4 22250 18600" fill="none" stroke-width="406.4"/><use xlink:href="#KVMPEUxcN-XwN-rIKumj_pad-16" x="22400" y="25200"/><path d="M 28231.4 22828.6 28231.4 22373.6" fill="none" stroke-width="406.4"/><use xlink:href="#KVMPEUxcN-XwN-rIKumj_pad-16" x="28231.4" y="22828.6"/><use xlink:href="#KVMPEUxcN-XwN-rIKumj_pad-16" x="29979.99" y="25329.6"/><use xlink:href="#KVMPEUxcN-XwN-rIKumj_pad-16" x="19000" y="25200"/><path d="M 28900 21705 29600 21705 M 28900 21705 28231.4 22373.6 M 1590 13690 1590 9973.4 M 1590 13690 1600 13700" fill="none" stroke-width="406.4"/><use xlink:href="#KVMPEUxcN-XwN-rIKumj_pad-16" x="1600" y="13700"/><use xlink:href="#KVMPEUxcN-XwN-rIKumj_pad-16" x="30529.6" y="12154.58"/><path d="M 29600 9005 28738.91 9005 M 28742.49 9017.51 28231.4 9528.6 28231.4 10128.6 M 28742.49 9017.51 28738.91 9005" fill="none" stroke-width="406.4"/><use xlink:href="#KVMPEUxcN-XwN-rIKumj_pad-16" x="28231.4" y="10128.6"/><path d="M 24200 5195 22755 5195 22250 5700 22250 5800 M 22250 5700 21234.98 6715.02 21120 6715.02" fill="none" stroke-width="406.4"/><use xlink:href="#KVMPEUxcN-XwN-rIKumj_pad-16" x="21120" y="6715.02"/><use xlink:href="#KVMPEUxcN-XwN-rIKumj_pad-16" x="17300" y="12500"/><use xlink:href="#KVMPEUxcN-XwN-rIKumj_pad-16" x="10895.2" y="12495.2"/><path d="M 10200 15800 9210 15800 9210 16526.6" fill="none" stroke-width="406.4"/><use xlink:href="#KVMPEUxcN-XwN-rIKumj_pad-16" x="10200" y="15800"/><use xlink:href="#KVMPEUxcN-XwN-rIKumj_pad-16" x="20600" y="22800"/><path d="M 24200 21705 25995 21705 26000 21700" fill="none" stroke-width="406.4"/><use xlink:href="#KVMPEUxcN-XwN-rIKumj_pad-16" x="26000" y="21700"/><path d="M 11700 21705 10995 21705 10200 22500 10200 23300" fill="none" stroke-width="406.4"/><use xlink:href="#KVMPEUxcN-XwN-rIKumj_pad-16" x="10200" y="23300"/><path d="M 1600 20900 1590 20890 1590 16526.6" fill="none" stroke-width="406.4"/><use xlink:href="#KVMPEUxcN-XwN-rIKumj_pad-16" x="18550" y="20900"/><use xlink:href="#KVMPEUxcN-XwN-rIKumj_pad-16" x="7021.6" y="24276"/><use xlink:href="#KVMPEUxcN-XwN-rIKumj_pad-16" x="18676.4" y="18283.19"/><use xlink:href="#KVMPEUxcN-XwN-rIKumj_pad-16" x="23250" y="22600"/><path d="M 20600 22800 20400 22600 20400 21140" fill="none" stroke-width="406.4"/><path d="M 20400 21140 20350 21090" fill="none" stroke-width="304.8"/><use xlink:href="#KVMPEUxcN-XwN-rIKumj_pad-16" x="1600" y="20900"/><use xlink:href="#KVMPEUxcN-XwN-rIKumj_pad-16" x="27000" y="17500"/><use xlink:href="#KVMPEUxcN-XwN-rIKumj_pad-16" x="14399.99" y="25129.6"/><use xlink:href="#KVMPEUxcN-XwN-rIKumj_pad-16" x="26300" y="14400"/><path d="M 18550 20900 18550 21400 18245 21705 17300 21705" fill="none" stroke-width="406.4"/><use xlink:href="#KVMPEUxcN-XwN-rIKumj_pad-16" x="26500" y="1600"/><use xlink:href="#KVMPEUxcN-XwN-rIKumj_pad-16" x="1500" y="8100"/><path d="M 1500 8100 1500 3916.6 1590 3826.6 M 9210 3826.6 9210 3000 10200 3000" fill="none" stroke-width="406.4"/><use xlink:href="#KVMPEUxcN-XwN-rIKumj_pad-16" x="10200" y="3000"/><path d="M 10616.6 9005 11700 9005 M 10616.6 9005 10121.6 9500 10121.6 10200" fill="none" stroke-width="406.4"/><use xlink:href="#KVMPEUxcN-XwN-rIKumj_pad-16" x="10121.6" y="10200"/><path d="M 20350 9834.98 20350 8390 M 20350 9834.98 20568.62 10053.6" fill="none" stroke-width="406.4"/><use xlink:href="#KVMPEUxcN-XwN-rIKumj_pad-16" x="20568.62" y="10053.6"/><path d="M 24200 9005 25795 9005 25800 9000" fill="none" stroke-width="406.4"/><use xlink:href="#KVMPEUxcN-XwN-rIKumj_pad-16" x="25800" y="9000"/><use xlink:href="#KVMPEUxcN-XwN-rIKumj_pad-16" x="21700" y="12500"/><use xlink:href="#KVMPEUxcN-XwN-rIKumj_pad-16" x="16340.4" y="12500"/><use xlink:href="#KVMPEUxcN-XwN-rIKumj_pad-16" x="23140" y="10084.98"/><use xlink:href="#KVMPEUxcN-XwN-rIKumj_pad-16" x="27200" y="5340.4"/><use xlink:href="#KVMPEUxcN-XwN-rIKumj_pad-16" x="6831.4" y="11600"/><path d="M 17300 9005 18195 9005 18600 8600 18600 8061.11" fill="none" stroke-width="406.4"/><use xlink:href="#KVMPEUxcN-XwN-rIKumj_pad-16" x="18600" y="8061.11"/><use xlink:href="#KVMPEUxcN-XwN-rIKumj_pad-16" x="18590.59" y="5781"/><use xlink:href="#KVMPEUxcN-XwN-rIKumj_pad-16" x="6000" y="21100"/><path d="M 11700 17895 12926.39 17895 13199.99 18168.6" fill="none" stroke-width="406.4"/><use xlink:href="#KVMPEUxcN-XwN-rIKumj_pad-16" x="13199.99" y="18168.6"/><use xlink:href="#KVMPEUxcN-XwN-rIKumj_pad-16" x="13934.6" y="20700"/><path d="M 11710 23610 11710 24910 11215.4 25404.6 4500 25404.6 2860 23764.6 2860 22673.4" fill="none" stroke-width="406.4"/><path d="M 4130 22673.4 4130 22073.4 3130 21073.4 3130 20170 M 8700 21308.4 10100 21308.4 M 8700 21308.4 6700 19308.4 3991.6 19308.4" fill="none" stroke-width="254"/><use xlink:href="#KVMPEUxcN-XwN-rIKumj_pad-16" x="10100" y="21308.4"/><use xlink:href="#KVMPEUxcN-XwN-rIKumj_pad-16" x="10121.6" y="17700"/><path d="M 3991.6 19308.4 3130 20170 M 12975.2 17264.8 14250 15990 M 10435.2 17264.8 10121.6 17578.4 10121.6 17700 M 10435.2 17264.8 12975.2 17264.8 M 13702.03 19077.97 16790 15990 M 12979.94 19077.97 12436.78 18534.8 9834.8 18534.8 M 9572.8 18272.8 8343.03 18272.8 7940 17869.78 7940 16526.6 M 12979.94 19077.97 13702.03 19077.97 M 9834.8 18534.8 9572.8 18272.8 M 19030 15990 19330 15990 M 19030 15990 18884.26 15970.94 17630 17225.2 M 6700 16556.6 6670 16526.6 M 13726.58 19800 16301.38 17225.2 M 6700 17793.43 6700 16556.6 M 16301.38 17225.2 17630 17225.2 M 8706.57 19800 6700 17793.43 M 8706.57 19800 13726.58 19800" fill="none" stroke-width="254"/><path d="M 21870 3390 21870 3290 M 21870 3390 20450 4810 20450 5700 20350 5800 M 24200 20435 25700 20435 25700 17600 24410 16310 24410 15990" fill="none" stroke-width="406.4"/><use xlink:href="#KVMPEUxcN-XwN-rIKumj_pad-16" x="27638.89" y="20561.11"/><path d="M 27638.89 20561.11 27512.78 20435 25700 20435 M 7940 22673.4 6670 22673.4" fill="none" stroke-width="406.4"/><use xlink:href="#KVMPEUxcN-XwN-rIKumj_pad-16" x="3938.4" y="20502.12"/><path d="M 7940 21330.41 7940 22673.4 M 7940 21330.41 6500.99 19891.4 M 4130 17144.93 4130 16526.6 M 4130 17144.93 3777.78 17507.16 3777.78 18310" fill="none" stroke-width="406.4"/><use xlink:href="#KVMPEUxcN-XwN-rIKumj_pad-16" x="3777.78" y="18310"/><path d="M 4549.12 19891.4 3938.4 20502.12 M 4549.12 19891.4 6500.99 19891.4" fill="none" stroke-width="406.4"/><path d="M 2860 16526.6 2844.2 16510.8 2844.2 14663.31 3507.51 14000 22300 14000 23154.4 14854.4 23154.4 16610.09 22464.49 17300 21700 17300 21276.4 17723.6 21276.4 18400" fill="none" stroke-width="304.8"/><use xlink:href="#KVMPEUxcN-XwN-rIKumj_pad-16" x="21276.4" y="18400"/><use xlink:href="#KVMPEUxcN-XwN-rIKumj_pad-16" x="16210" y="19800"/><path d="M 16410 19800 17045 20435 M 16410 19800 16210 19800 M 17045 20435 17300 20435 M 5400 16526.6 5400 15800 M 6420 14780 10824.98 14780" fill="none" stroke-width="406.4"/><use xlink:href="#KVMPEUxcN-XwN-rIKumj_pad-16" x="10824.98" y="14780"/><path d="M 6420 14780 5400 15800" fill="none" stroke-width="406.4"/><use xlink:href="#KVMPEUxcN-XwN-rIKumj_pad-16" x="9200" y="24400"/><path d="M 9200 24400 9210 24390 9210 22673.4 M 5400 22673.4 5400 21773.4 4998 21371.4 4998 20876" fill="none" stroke-width="406.4"/><use xlink:href="#KVMPEUxcN-XwN-rIKumj_pad-16" x="4998" y="20876"/><use xlink:href="#KVMPEUxcN-XwN-rIKumj_pad-16" x="12950" y="20700"/><path d="M 11700 20435 11685 20420 8570.48 20420 M 6650.48 18500 5750 18500" fill="none" stroke-width="406.4"/><use xlink:href="#KVMPEUxcN-XwN-rIKumj_pad-16" x="5750" y="18500"/><path d="M 6650.48 18500 8570.48 20420 M 12685 20435 12950 20700 M 12685 20435 11700 20435 M 11700 19165 9300 19165 9200 19065" fill="none" stroke-width="406.4"/><use xlink:href="#KVMPEUxcN-XwN-rIKumj_pad-16" x="9200" y="19065"/><use xlink:href="#KVMPEUxcN-XwN-rIKumj_pad-16" x="20585.6" y="14932.49"/><path d="M 20585.6 14932.49 20585.6 16510.09" fill="none" stroke-width="304.8"/><use xlink:href="#KVMPEUxcN-XwN-rIKumj_pad-16" x="18550" y="19900"/><path d="M 19695.69 17400 20585.6 16510.09 M 18137.7 17400 17642.7 17895 M 18137.7 17400 19695.69 17400 M 17300 17895 17300 19165 M 17300 17895 17642.7 17895" fill="none" stroke-width="304.8"/><path d="M 18350 19900 18550 19900 M 18350 19900 17615 19165 17300 19165" fill="none" stroke-width="254"/><use xlink:href="#KVMPEUxcN-XwN-rIKumj_pad-16" x="27634.6" y="18600"/><path d="M 29200 19165 29600 19165 M 29200 19165 28635 18600 M 29600 19165 29600 20435 M 28635 18600 27634.6 18600" fill="none" stroke-width="406.4"/><path d="M 29100 17895 29600 17895 M 29100 17895 28234.4 17029.4 M 28234.4 15274.8 27359.6 14400" fill="none" stroke-width="304.8"/><use xlink:href="#KVMPEUxcN-XwN-rIKumj_pad-16" x="27359.6" y="14400"/><path d="M 28234.4 15274.8 28234.4 17029.4" fill="none" stroke-width="304.8"/><use xlink:href="#KVMPEUxcN-XwN-rIKumj_pad-16" x="5900" y="8400"/><use xlink:href="#KVMPEUxcN-XwN-rIKumj_pad-16" x="13934.6" y="8100"/><path d="M 12895 5195 11700 5195 M 12895 5195 13100 5400" fill="none" stroke-width="406.4"/><use xlink:href="#KVMPEUxcN-XwN-rIKumj_pad-16" x="13100" y="5400"/><path d="M 2860 9973.4 2860 11360 M 11200 13300 11800 12700 11800 11000 11710 10910 M 4800 13300 2860 11360 M 4800 13300 11200 13300" fill="none" stroke-width="406.4"/><path d="M 12975.2 4564.8 14250 3290" fill="none" stroke-width="254"/><use xlink:href="#KVMPEUxcN-XwN-rIKumj_pad-16" x="10121.6" y="4958.73"/><use xlink:href="#KVMPEUxcN-XwN-rIKumj_pad-16" x="9958.52" y="8553.49"/><path d="M 2891.6 8093.43 2891.6 7506.57 M 8307.83 8553.49 9958.52 8553.49 M 8307.83 8553.49 6120.94 6366.6 4031.57 6366.6 2891.6 7506.57 M 4130 9331.83 4130 9973.4 M 4130 9331.83 2891.6 8093.43 M 10121.6 4958.73 10515.53 4564.8 12975.2 4564.8 M 9070.97 5172.8 8743.03 5172.8 M 9070.97 5172.8 9732.97 5834.8 M 7940 4369.78 7940 3826.6 M 7940 4369.78 8743.03 5172.8 M 12436.78 5834.8 12801.98 6200 M 12436.78 5834.8 9732.97 5834.8 M 12801.98 6200 13480 6200 M 16390 3290 16790 3290 M 16390 3290 13480 6200 M 19330 3400 19330 3290 M 6679.6 3836.2 6670 3826.6 M 6679.6 3836.2 6679.6 4941.63 8837.97 7100 M 16563.23 4564.8 17375.19 4564.8 17876.99 4063 M 18667 4063 19330 3400 M 18667 4063 17876.99 4063 M 16563.23 4564.8 14028.03 7100 8837.97 7100" fill="none" stroke-width="254"/><use xlink:href="#KVMPEUxcN-XwN-rIKumj_pad-16" x="27690" y="7910"/><path d="M 25835 7735 24200 7735 M 27535 7735 27690 7910 M 27535 7735 25835 7735 25835 4715 24410 3290 M 7940 9973.4 6670 9973.4" fill="none" stroke-width="406.4"/><use xlink:href="#KVMPEUxcN-XwN-rIKumj_pad-16" x="3600" y="7800"/><path d="M 4200 7000 6000 7000 M 4200 7000 3600 7600 3600 7800" fill="none" stroke-width="406.4"/><use xlink:href="#KVMPEUxcN-XwN-rIKumj_pad-16" x="3750" y="5650"/><path d="M 4130 5270 4130 3826.6 M 4130 5270 3750 5650 M 7940 8940 7940 9973.4 M 7940 8940 6000 7000" fill="none" stroke-width="406.4"/><path d="M 2860 3826.6 2860 1984.6 3600 1244.6 M 22344.6 1244.6 23154.4 2054.4 23154.4 3845.6 M 22344.6 1244.6 3600 1244.6" fill="none" stroke-width="304.8"/><use xlink:href="#KVMPEUxcN-XwN-rIKumj_pad-16" x="21300" y="5500"/><path d="M 21761.51 4545.6 22454.4 4545.6 23154.4 3845.6 M 21761.51 4545.6 21300 5007.11 21300 5500" fill="none" stroke-width="304.8"/><use xlink:href="#KVMPEUxcN-XwN-rIKumj_pad-16" x="16200" y="7100"/><path d="M 16200 7500 16435 7735 M 16200 7500 16200 7100 M 16435 7735 17300 7735 M 5400 3826.6 5400 2900 M 6220 2080 10824.98 2080" fill="none" stroke-width="406.4"/><use xlink:href="#KVMPEUxcN-XwN-rIKumj_pad-16" x="10824.98" y="2080"/><path d="M 6220 2080 5400 2900" fill="none" stroke-width="406.4"/><use xlink:href="#KVMPEUxcN-XwN-rIKumj_pad-16" x="9200" y="12300"/><path d="M 9200 12300 9210 12290 9210 9973.4" fill="none" stroke-width="406.4"/><use xlink:href="#KVMPEUxcN-XwN-rIKumj_pad-16" x="4800" y="8000"/><path d="M 5400 9173.4 5400 9973.4 M 5400 9173.4 4800 8573.4 4800 8000 M 11700 7735 12585 7735 12950 8100" fill="none" stroke-width="406.4"/><use xlink:href="#KVMPEUxcN-XwN-rIKumj_pad-16" x="12950" y="8100"/><use xlink:href="#KVMPEUxcN-XwN-rIKumj_pad-16" x="5750" y="5600"/><path d="M 11698.4 7733.4 11700 7735 M 11698.4 7733.4 8379.06 7733.4 M 6245.66 5600 5750 5600 M 6245.66 5600 8379.06 7733.4 M 11626.6 6391.6 11700 6465 M 11626.6 6391.6 9131.4 6391.6" fill="none" stroke-width="406.4"/><use xlink:href="#KVMPEUxcN-XwN-rIKumj_pad-16" x="9131.4" y="6391.6"/><use xlink:href="#KVMPEUxcN-XwN-rIKumj_pad-16" x="20590" y="2332.49"/><path d="M 17300 5195 17300 6465" fill="none" stroke-width="304.8"/><use xlink:href="#KVMPEUxcN-XwN-rIKumj_pad-16" x="18568.6" y="6750"/><path d="M 18568.6 6750 18050 6750 17765 6465 17300 6465" fill="none" stroke-width="406.4"/><path d="M 19850.09 4545.6 20585.6 3810.09 M 17427.49 5195 17300 5195 M 20585.6 2336.89 20590 2332.49 M 20585.6 2336.89 20585.6 3810.09 M 18076.89 4545.6 17427.49 5195 M 18076.89 4545.6 19850.09 4545.6" fill="none" stroke-width="304.8"/><use xlink:href="#KVMPEUxcN-XwN-rIKumj_pad-16" x="27384.6" y="6400"/><path d="M 29535 6400 29600 6465 M 29535 6400 27384.6 6400 M 29600 6465 29600 7735" fill="none" stroke-width="406.4"/><path d="M 29600 5195 29095 5195" fill="none" stroke-width="304.8"/><use xlink:href="#KVMPEUxcN-XwN-rIKumj_pad-16" x="27518.6" y="1600"/><path d="M 28205.6 4305.6 29095 5195 M 28205.6 2287 27518.6 1600 M 28205.6 2287 28205.6 4305.6" fill="none" stroke-width="304.8"/><path d="M 21870 15990 21870 16015.96 20350 17535.96 20350 18500 M 24165 19200 24200 19165 M 24165 19200 23800 19200 23500 19500 M 21300 20412.11 21300 21090 M 21300 20412.11 22212.11 19500 23500 19500 M 21300 8390 21300 7700 M 22098.6 6901.4 23363.34 6901.4 23799.74 6465 24200 6465 M 22098.6 6901.4 21300 7700" fill="none" stroke-width="406.4"/></g></svg>