<svg version="1.1" xmlns="http://www.w3.org/2000/svg" xmlns:xlink="http://www.w3.org/1999/xlink" stroke-linecap="round" stroke-linejoin="round" stroke-width="0" fill-rule="evenodd" width="29.786mm" height="24.615599999999997mm" viewBox="1121.8 1092.2 29786 24615.6" id="uo0HlYO3CLBMMvt0scWs"><defs><circle cx="0" cy="0" r="900" id="uo0HlYO3CLBMMvt0scWs_pad-10"/><rect x="-550" y="-500" width="1100" height="1000" id="uo0HlYO3CLBMMvt0scWs_pad-11"/><rect x="-500" y="-550" width="1000" height="1100" id="uo0HlYO3CLBMMvt0scWs_pad-12"/><rect x="-415" y="-315" width="830" height="630" id="uo0HlYO3CLBMMvt0scWs_pad-13"/><rect x="-450" y="-400" width="900" height="800" id="uo0HlYO3CLBMMvt0scWs_pad-14"/><circle cx="0" cy="0" r="378.2" id="uo0HlYO3CLBMMvt0scWs_pad-15"/></defs><g transform="translate(0,26800) scale(1,-1)" fill="currentColor" stroke="currentColor"><use xlink:href="#uo0HlYO3CLBMMvt0scWs_pad-10" x="11710" y="15990"/><use xlink:href="#uo0HlYO3CLBMMvt0scWs_pad-10" x="14250" y="15990"/><use xlink:href="#uo0HlYO3CLBMMvt0scWs_pad-10" x="16790" y="15990"/><use xlink:href="#uo0HlYO3CLBMMvt0scWs_pad-10" x="19330" y="15990"/><use xlink:href="#uo0HlYO3CLBMMvt0scWs_pad-10" x="21870" y="15990"/><use xlink:href="#uo0HlYO3CLBMMvt0scWs_pad-10" x="24410" y="15990"/><use xlink:href="#uo0HlYO3CLBMMvt0scWs_pad-10" x="26950" y="15990"/><use xlink:href="#uo0HlYO3CLBMMvt0scWs_pad-10" x="29490" y="15990"/><use xlink:href="#uo0HlYO3CLBMMvt0scWs_pad-10" x="29490" y="23610"/><use xlink:href="#uo0HlYO3CLBMMvt0scWs_pad-10" x="26950" y="23610"/><use xlink:href="#uo0HlYO3CLBMMvt0scWs_pad-10" x="24410" y="23610"/><use xlink:href="#uo0HlYO3CLBMMvt0scWs_pad-10" x="21870" y="23610"/><use xlink:href="#uo0HlYO3CLBMMvt0scWs_pad-10" x="19330" y="23610"/><use xlink:href="#uo0HlYO3CLBMMvt0scWs_pad-10" x="16790" y="23610"/><use xlink:href="#uo0HlYO3CLBMMvt0scWs_pad-10" x="14250" y="23610"/><use xlink:href="#uo0HlYO3CLBMMvt0scWs_pad-10" x="11710" y="23610"/><use xlink:href="#uo0HlYO3CLBMMvt0scWs_pad-11" x="15950" y="25200"/><use xlink:href="#uo0HlYO3CLBMMvt0scWs_pad-11" x="17650" y="25200"/><use xlink:href="#uo0HlYO3CLBMMvt0scWs_pad-11" x="25350" y="25200"/><use xlink:href="#uo0HlYO3CLBMMvt0scWs_pad-11" x="23650" y="25200"/><use xlink:href="#uo0HlYO3CLBMMvt0scWs_pad-12" x="1700" y="23450"/><use xlink:href="#uo0HlYO3CLBMMvt0scWs_pad-12" x="1700" y="25150"/><use xlink:href="#uo0HlYO3CLBMMvt0scWs_pad-11" x="19700" y="20050"/><use xlink:href="#uo0HlYO3CLBMMvt0scWs_pad-11" x="19700" y="21750"/><use xlink:href="#uo0HlYO3CLBMMvt0scWs_pad-12" x="22200" y="21750"/><use xlink:href="#uo0HlYO3CLBMMvt0scWs_pad-12" x="22200" y="20050"/><use xlink:href="#uo0HlYO3CLBMMvt0scWs_pad-13" x="26000" y="20350"/><use xlink:href="#uo0HlYO3CLBMMvt0scWs_pad-13" x="26000" y="18050"/><use xlink:href="#uo0HlYO3CLBMMvt0scWs_pad-11" x="15050" y="20050"/><use xlink:href="#uo0HlYO3CLBMMvt0scWs_pad-11" x="15050" y="21750"/><use xlink:href="#uo0HlYO3CLBMMvt0scWs_pad-11" x="16720" y="18300"/><use xlink:href="#uo0HlYO3CLBMMvt0scWs_pad-11" x="15020" y="18300"/><use xlink:href="#uo0HlYO3CLBMMvt0scWs_pad-12" x="17400" y="21750"/><use xlink:href="#uo0HlYO3CLBMMvt0scWs_pad-12" x="17400" y="20050"/><use xlink:href="#uo0HlYO3CLBMMvt0scWs_pad-11" x="2950" y="19400"/><use xlink:href="#uo0HlYO3CLBMMvt0scWs_pad-11" x="4650" y="19400"/><use xlink:href="#uo0HlYO3CLBMMvt0scWs_pad-11" x="2950" y="17300"/><use xlink:href="#uo0HlYO3CLBMMvt0scWs_pad-11" x="4650" y="17300"/><use xlink:href="#uo0HlYO3CLBMMvt0scWs_pad-11" x="12950" y="22000"/><use xlink:href="#uo0HlYO3CLBMMvt0scWs_pad-11" x="11250" y="22000"/><use xlink:href="#uo0HlYO3CLBMMvt0scWs_pad-14" x="8100" y="24150"/><use xlink:href="#uo0HlYO3CLBMMvt0scWs_pad-14" x="8100" y="22250"/><use xlink:href="#uo0HlYO3CLBMMvt0scWs_pad-14" x="6000" y="23200"/><use xlink:href="#uo0HlYO3CLBMMvt0scWs_pad-14" x="8100" y="21050"/><use xlink:href="#uo0HlYO3CLBMMvt0scWs_pad-14" x="8100" y="19150"/><use xlink:href="#uo0HlYO3CLBMMvt0scWs_pad-14" x="6000" y="20100"/><use xlink:href="#uo0HlYO3CLBMMvt0scWs_pad-12" x="28550" y="19600"/><use xlink:href="#uo0HlYO3CLBMMvt0scWs_pad-12" x="30250" y="19600"/><use xlink:href="#uo0HlYO3CLBMMvt0scWs_pad-12" x="28550" y="21620"/><use xlink:href="#uo0HlYO3CLBMMvt0scWs_pad-12" x="30250" y="21620"/><use xlink:href="#uo0HlYO3CLBMMvt0scWs_pad-11" x="25150" y="14400"/><use xlink:href="#uo0HlYO3CLBMMvt0scWs_pad-11" x="23450" y="14400"/><use xlink:href="#uo0HlYO3CLBMMvt0scWs_pad-11" x="30250" y="17575"/><use xlink:href="#uo0HlYO3CLBMMvt0scWs_pad-11" x="28550" y="17575"/><use xlink:href="#uo0HlYO3CLBMMvt0scWs_pad-11" x="30250" y="14400"/><use xlink:href="#uo0HlYO3CLBMMvt0scWs_pad-11" x="28550" y="14400"/><use xlink:href="#uo0HlYO3CLBMMvt0scWs_pad-11" x="24500" y="20050"/><use xlink:href="#uo0HlYO3CLBMMvt0scWs_pad-11" x="24500" y="21750"/><use xlink:href="#uo0HlYO3CLBMMvt0scWs_pad-12" x="24150" y="18300"/><use xlink:href="#uo0HlYO3CLBMMvt0scWs_pad-12" x="22450" y="18300"/><use xlink:href="#uo0HlYO3CLBMMvt0scWs_pad-12" x="7250" y="15200"/><use xlink:href="#uo0HlYO3CLBMMvt0scWs_pad-12" x="8950" y="15200"/><use xlink:href="#uo0HlYO3CLBMMvt0scWs_pad-12" x="4050" y="25000"/><use xlink:href="#uo0HlYO3CLBMMvt0scWs_pad-12" x="5750" y="25000"/><use xlink:href="#uo0HlYO3CLBMMvt0scWs_pad-11" x="3810" y="21630"/><use xlink:href="#uo0HlYO3CLBMMvt0scWs_pad-11" x="3810" y="23330"/><use xlink:href="#uo0HlYO3CLBMMvt0scWs_pad-12" x="4650" y="15200"/><use xlink:href="#uo0HlYO3CLBMMvt0scWs_pad-12" x="2950" y="15200"/><use xlink:href="#uo0HlYO3CLBMMvt0scWs_pad-12" x="12950" y="19500"/><use xlink:href="#uo0HlYO3CLBMMvt0scWs_pad-12" x="11250" y="19500"/><use xlink:href="#uo0HlYO3CLBMMvt0scWs_pad-12" x="8950" y="17600"/><use xlink:href="#uo0HlYO3CLBMMvt0scWs_pad-12" x="7250" y="17600"/><use xlink:href="#uo0HlYO3CLBMMvt0scWs_pad-10" x="11710" y="3290"/><use xlink:href="#uo0HlYO3CLBMMvt0scWs_pad-10" x="14250" y="3290"/><use xlink:href="#uo0HlYO3CLBMMvt0scWs_pad-10" x="16790" y="3290"/><use xlink:href="#uo0HlYO3CLBMMvt0scWs_pad-10" x="19330" y="3290"/><use xlink:href="#uo0HlYO3CLBMMvt0scWs_pad-10" x="21870" y="3290"/><use xlink:href="#uo0HlYO3CLBMMvt0scWs_pad-10" x="24410" y="3290"/><use xlink:href="#uo0HlYO3CLBMMvt0scWs_pad-10" x="26950" y="3290"/><use xlink:href="#uo0HlYO3CLBMMvt0scWs_pad-10" x="29490" y="3290"/><use xlink:href="#uo0HlYO3CLBMMvt0scWs_pad-10" x="29490" y="10910"/><use xlink:href="#uo0HlYO3CLBMMvt0scWs_pad-10" x="26950" y="10910"/><use xlink:href="#uo0HlYO3CLBMMvt0scWs_pad-10" x="24410" y="10910"/><use xlink:href="#uo0HlYO3CLBMMvt0scWs_pad-10" x="21870" y="10910"/><use xlink:href="#uo0HlYO3CLBMMvt0scWs_pad-10" x="19330" y="10910"/><use xlink:href="#uo0HlYO3CLBMMvt0scWs_pad-10" x="16790" y="10910"/><use xlink:href="#uo0HlYO3CLBMMvt0scWs_pad-10" x="14250" y="10910"/><use xlink:href="#uo0HlYO3CLBMMvt0scWs_pad-10" x="11710" y="10910"/><use xlink:href="#uo0HlYO3CLBMMvt0scWs_pad-11" x="15150" y="12500"/><use xlink:href="#uo0HlYO3CLBMMvt0scWs_pad-11" x="13450" y="12500"/><use xlink:href="#uo0HlYO3CLBMMvt0scWs_pad-11" x="20150" y="12500"/><use xlink:href="#uo0HlYO3CLBMMvt0scWs_pad-11" x="18450" y="12500"/><use xlink:href="#uo0HlYO3CLBMMvt0scWs_pad-12" x="1700" y="10750"/><use xlink:href="#uo0HlYO3CLBMMvt0scWs_pad-12" x="1700" y="12450"/><use xlink:href="#uo0HlYO3CLBMMvt0scWs_pad-11" x="19700" y="7350"/><use xlink:href="#uo0HlYO3CLBMMvt0scWs_pad-11" x="19700" y="9050"/><use xlink:href="#uo0HlYO3CLBMMvt0scWs_pad-12" x="22200" y="9050"/><use xlink:href="#uo0HlYO3CLBMMvt0scWs_pad-12" x="22200" y="7350"/><use xlink:href="#uo0HlYO3CLBMMvt0scWs_pad-13" x="26000" y="7650"/><use xlink:href="#uo0HlYO3CLBMMvt0scWs_pad-13" x="26000" y="5350"/><use xlink:href="#uo0HlYO3CLBMMvt0scWs_pad-11" x="15050" y="7350"/><use xlink:href="#uo0HlYO3CLBMMvt0scWs_pad-11" x="15050" y="9050"/><use xlink:href="#uo0HlYO3CLBMMvt0scWs_pad-11" x="16880" y="5510"/><use xlink:href="#uo0HlYO3CLBMMvt0scWs_pad-11" x="15180" y="5510"/><use xlink:href="#uo0HlYO3CLBMMvt0scWs_pad-12" x="17400" y="9050"/><use xlink:href="#uo0HlYO3CLBMMvt0scWs_pad-12" x="17400" y="7350"/><use xlink:href="#uo0HlYO3CLBMMvt0scWs_pad-11" x="2950" y="6700"/><use xlink:href="#uo0HlYO3CLBMMvt0scWs_pad-11" x="4650" y="6700"/><use xlink:href="#uo0HlYO3CLBMMvt0scWs_pad-11" x="2950" y="4600"/><use xlink:href="#uo0HlYO3CLBMMvt0scWs_pad-11" x="4650" y="4600"/><use xlink:href="#uo0HlYO3CLBMMvt0scWs_pad-11" x="12950" y="9300"/><use xlink:href="#uo0HlYO3CLBMMvt0scWs_pad-11" x="11250" y="9300"/><use xlink:href="#uo0HlYO3CLBMMvt0scWs_pad-14" x="8100" y="11450"/><use xlink:href="#uo0HlYO3CLBMMvt0scWs_pad-14" x="8100" y="9550"/><use xlink:href="#uo0HlYO3CLBMMvt0scWs_pad-14" x="6000" y="10500"/><use xlink:href="#uo0HlYO3CLBMMvt0scWs_pad-14" x="8100" y="8350"/><use xlink:href="#uo0HlYO3CLBMMvt0scWs_pad-14" x="8100" y="6450"/><use xlink:href="#uo0HlYO3CLBMMvt0scWs_pad-14" x="6000" y="7400"/><use xlink:href="#uo0HlYO3CLBMMvt0scWs_pad-12" x="28550" y="6900"/><use xlink:href="#uo0HlYO3CLBMMvt0scWs_pad-12" x="30250" y="6900"/><use xlink:href="#uo0HlYO3CLBMMvt0scWs_pad-12" x="28550" y="8920"/><use xlink:href="#uo0HlYO3CLBMMvt0scWs_pad-12" x="30250" y="8920"/><use xlink:href="#uo0HlYO3CLBMMvt0scWs_pad-11" x="25250" y="1600"/><use xlink:href="#uo0HlYO3CLBMMvt0scWs_pad-11" x="23550" y="1600"/><use xlink:href="#uo0HlYO3CLBMMvt0scWs_pad-11" x="30250" y="4875"/><use xlink:href="#uo0HlYO3CLBMMvt0scWs_pad-11" x="28550" y="4875"/><use xlink:href="#uo0HlYO3CLBMMvt0scWs_pad-11" x="30350" y="1700"/><use xlink:href="#uo0HlYO3CLBMMvt0scWs_pad-11" x="28650" y="1700"/><use xlink:href="#uo0HlYO3CLBMMvt0scWs_pad-11" x="24500" y="7350"/><use xlink:href="#uo0HlYO3CLBMMvt0scWs_pad-11" x="24500" y="9050"/><use xlink:href="#uo0HlYO3CLBMMvt0scWs_pad-12" x="24150" y="5600"/><use xlink:href="#uo0HlYO3CLBMMvt0scWs_pad-12" x="22450" y="5600"/><use xlink:href="#uo0HlYO3CLBMMvt0scWs_pad-12" x="7250" y="2500"/><use xlink:href="#uo0HlYO3CLBMMvt0scWs_pad-12" x="8950" y="2500"/><use xlink:href="#uo0HlYO3CLBMMvt0scWs_pad-12" x="4050" y="12300"/><use xlink:href="#uo0HlYO3CLBMMvt0scWs_pad-12" x="5750" y="12300"/><use xlink:href="#uo0HlYO3CLBMMvt0scWs_pad-11" x="3810" y="8930"/><use xlink:href="#uo0HlYO3CLBMMvt0scWs_pad-11" x="3810" y="10630"/><use xlink:href="#uo0HlYO3CLBMMvt0scWs_pad-12" x="4650" y="2500"/><use xlink:href="#uo0HlYO3CLBMMvt0scWs_pad-12" x="2950" y="2500"/><use xlink:href="#uo0HlYO3CLBMMvt0scWs_pad-12" x="12950" y="6800"/><use xlink:href="#uo0HlYO3CLBMMvt0scWs_pad-12" x="11250" y="6800"/><use xlink:href="#uo0HlYO3CLBMMvt0scWs_pad-12" x="8950" y="4900"/><use xlink:href="#uo0HlYO3CLBMMvt0scWs_pad-12" x="7250" y="4900"/><use xlink:href="#uo0HlYO3CLBMMvt0scWs_pad-15" x="2800" y="25100"/><path d="M 1850 25100 1700 25150 M 1850 25100 2800 25100" fill="none" stroke-width="406.4"/><use xlink:href="#uo0HlYO3CLBMMvt0scWs_pad-15" x="20914.01" y="19576.4"/><path d="M 22400 25200 22387.07 25212.93" fill="none" stroke-width="406.4"/><use xlink:href="#uo0HlYO3CLBMMvt0scWs_pad-15" x="22400" y="25200"/><path d="M 30250 21620 30250 19600 30160 19510" fill="none" stroke-width="406.4"/><use xlink:href="#uo0HlYO3CLBMMvt0scWs_pad-15" x="28231.4" y="22828.6"/><use xlink:href="#uo0HlYO3CLBMMvt0scWs_pad-15" x="29979.99" y="25329.6"/><path d="M 19000 25200 17650 25200" fill="none" stroke-width="406.4"/><use xlink:href="#uo0HlYO3CLBMMvt0scWs_pad-15" x="19000" y="25200"/><path d="M 22400 25200 23650 25200" fill="none" stroke-width="406.4"/><path d="M 29979.99 25329.6 30755.4 24554.19 M 30755.4 22125.4 30250 21620 M 30755.4 22125.4 30755.4 24554.19" fill="none" stroke-width="304.8"/><use xlink:href="#uo0HlYO3CLBMMvt0scWs_pad-15" x="1600" y="13700"/><path d="M 1600 13700 1600 12550 1700 12450 M 30250 8920 30250 6900" fill="none" stroke-width="406.4"/><path d="M 30250 9014.89 30755.4 9494.49 M 30250 9014.89 30250 8920 M 30755.4 11928.78 30529.6 12154.58 M 30755.4 11928.78 30755.4 9494.49" fill="none" stroke-width="304.8"/><use xlink:href="#uo0HlYO3CLBMMvt0scWs_pad-15" x="30529.6" y="12154.58"/><use xlink:href="#uo0HlYO3CLBMMvt0scWs_pad-15" x="28231.4" y="10128.6"/><use xlink:href="#uo0HlYO3CLBMMvt0scWs_pad-15" x="21120" y="6715.02"/><path d="M 18450 12500 17300 12500" fill="none" stroke-width="406.4"/><use xlink:href="#uo0HlYO3CLBMMvt0scWs_pad-15" x="17300" y="12500"/><path d="M 13450 12500 10900 12500 10895.2 12495.2" fill="none" stroke-width="406.4"/><use xlink:href="#uo0HlYO3CLBMMvt0scWs_pad-15" x="10895.2" y="12495.2"/><use xlink:href="#uo0HlYO3CLBMMvt0scWs_pad-15" x="10200" y="15800"/><use xlink:href="#uo0HlYO3CLBMMvt0scWs_pad-15" x="20600" y="22800"/><use xlink:href="#uo0HlYO3CLBMMvt0scWs_pad-15" x="26000" y="21700"/><use xlink:href="#uo0HlYO3CLBMMvt0scWs_pad-15" x="10200" y="23300"/><use xlink:href="#uo0HlYO3CLBMMvt0scWs_pad-15" x="18550" y="20900"/><path d="M 7021.6 24221.6 7021.6 24276 M 7021.6 24221.6 6000 23200" fill="none" stroke-width="406.4"/><use xlink:href="#uo0HlYO3CLBMMvt0scWs_pad-15" x="7021.6" y="24276"/><path d="M 16695.89 18283.19 18676.4 18283.19 M 16720 18300 16695.89 18283.19" fill="none" stroke-width="406.4"/><use xlink:href="#uo0HlYO3CLBMMvt0scWs_pad-15" x="18676.4" y="18283.19"/><use xlink:href="#uo0HlYO3CLBMMvt0scWs_pad-15" x="23250" y="22600"/><path d="M 23250 22600 22800 22600 22200 22000 22200 21750 M 1700 23450 1600 23350 1600 20900" fill="none" stroke-width="406.4"/><use xlink:href="#uo0HlYO3CLBMMvt0scWs_pad-15" x="1600" y="20900"/><path d="M 25900 17950 26000 18050" fill="none" stroke-width="304.8"/><path d="M 30250 17575 30250 16650 29490 15990 M 28800 25400 25550 25400 25350 25200 M 29490 24710 29490 23610 M 29490 24710 28800 25400" fill="none" stroke-width="406.4"/><use xlink:href="#uo0HlYO3CLBMMvt0scWs_pad-15" x="27000" y="17500"/><path d="M 29490 15990 30250 15230 30250 14400 M 15950 25200 14470.39 25200 14399.99 25129.6" fill="none" stroke-width="406.4"/><use xlink:href="#uo0HlYO3CLBMMvt0scWs_pad-15" x="14399.99" y="25129.6"/><path d="M 26000 18050 26000 17900 26400 17500 27000 17500 M 26300 14400 25150 14400" fill="none" stroke-width="406.4"/><use xlink:href="#uo0HlYO3CLBMMvt0scWs_pad-15" x="26300" y="14400"/><path d="M 26500 1600 25250 1600" fill="none" stroke-width="406.4"/><use xlink:href="#uo0HlYO3CLBMMvt0scWs_pad-15" x="26500" y="1600"/><path d="M 30350 1700 30350 2430 29490 3290 M 30250 4050 30250 4875 M 30250 4050 29490 3290 M 1700 10750 1500 10550 1500 8100" fill="none" stroke-width="406.4"/><use xlink:href="#uo0HlYO3CLBMMvt0scWs_pad-15" x="1500" y="8100"/><use xlink:href="#uo0HlYO3CLBMMvt0scWs_pad-15" x="10200" y="3000"/><use xlink:href="#uo0HlYO3CLBMMvt0scWs_pad-15" x="10121.6" y="10200"/><use xlink:href="#uo0HlYO3CLBMMvt0scWs_pad-15" x="20568.62" y="10053.6"/><use xlink:href="#uo0HlYO3CLBMMvt0scWs_pad-15" x="25800" y="9000"/><path d="M 21700 12500 20150 12500" fill="none" stroke-width="406.4"/><use xlink:href="#uo0HlYO3CLBMMvt0scWs_pad-15" x="21700" y="12500"/><path d="M 16340.4 12500 15150 12500" fill="none" stroke-width="406.4"/><use xlink:href="#uo0HlYO3CLBMMvt0scWs_pad-15" x="16340.4" y="12500"/><path d="M 22200 9050 23140 9990 23140 10084.98" fill="none" stroke-width="406.4"/><use xlink:href="#uo0HlYO3CLBMMvt0scWs_pad-15" x="23140" y="10084.98"/><path d="M 26000 5350 26000 5340.4 27200 5340.4" fill="none" stroke-width="406.4"/><use xlink:href="#uo0HlYO3CLBMMvt0scWs_pad-15" x="27200" y="5340.4"/><path d="M 6831.4 11100 6831.4 11600 M 6831.4 11100 6231.4 10500 6000 10500" fill="none" stroke-width="406.4"/><use xlink:href="#uo0HlYO3CLBMMvt0scWs_pad-15" x="6831.4" y="11600"/><use xlink:href="#uo0HlYO3CLBMMvt0scWs_pad-15" x="18600" y="8061.11"/><use xlink:href="#uo0HlYO3CLBMMvt0scWs_pad-15" x="18590.59" y="5781"/><path d="M 18380 5510 16880 5510 M 18590.59 5720.59 18590.59 5781 M 18590.59 5720.59 18380 5510" fill="none" stroke-width="406.4"/><use xlink:href="#uo0HlYO3CLBMMvt0scWs_pad-15" x="6000" y="21100"/><path d="M 6000 21100 6000 20100 M 24410 21840 24410 23610 M 24410 21840 24500 21750" fill="none" stroke-width="406.4"/><use xlink:href="#uo0HlYO3CLBMMvt0scWs_pad-15" x="13199.99" y="18168.6"/><path d="M 13347.2 18168.6 13939.3 18760.7 M 13347.2 18168.6 13199.99 18168.6" fill="none" stroke-width="406.4"/><use xlink:href="#uo0HlYO3CLBMMvt0scWs_pad-15" x="13934.6" y="20700"/><path d="M 13939.3 20695.3 13939.3 18760.7 M 13939.3 20695.3 13934.6 20700" fill="none" stroke-width="406.4"/><use xlink:href="#uo0HlYO3CLBMMvt0scWs_pad-15" x="10100" y="21308.4"/><path d="M 10100 21308.4 10100 17721.6 10121.6 17700" fill="none" stroke-width="254"/><use xlink:href="#uo0HlYO3CLBMMvt0scWs_pad-15" x="10121.6" y="17700"/><path d="M 24010 15990 24410 15990 M 24010 15990 23450 15430 23450 14400 M 27615 20585 28550 21520 M 27615 20585 27638.89 20561.11 M 28550 21520 28550 21620" fill="none" stroke-width="406.4"/><use xlink:href="#uo0HlYO3CLBMMvt0scWs_pad-15" x="27638.89" y="20561.11"/><path d="M 8100 22250 7775.26 22250 7200 21674.74 7200 19150 8100 19150 M 7200 17650 7250 17600 M 7200 17650 7200 19150 M 7250 17600 7250 16850 7456.4 16643.6 M 11250 19500 11250 22000 M 10234.01 16643.6 7456.4 16643.6 M 25156.4 19000 25385 19228.6 M 26583.34 19228.6 26850 19495.26 M 25156.4 19000 25156.4 17656.4 M 25385 19228.6 26583.34 19228.6 M 26850 23510 26950 23610 M 26850 23510 26850 19495.26 M 11250 19500 11250 17334.6 M 11281 17303.6 10894.01 17303.6 10234.01 16643.6 M 11250 17334.6 11281 17303.6 24803.6 17303.6 25156.4 17656.4 M 2950 18320.54 2950 19400" fill="none" stroke-width="406.4"/><use xlink:href="#uo0HlYO3CLBMMvt0scWs_pad-15" x="3938.4" y="20502.12"/><path d="M 3938.4 20502.12 3438.4 20502.12 3136.28 20200 M 3136.28 19586.28 2950 19400 M 3136.28 19586.28 3136.28 20200 M 2950 17300 2950 15200" fill="none" stroke-width="406.4"/><use xlink:href="#uo0HlYO3CLBMMvt0scWs_pad-15" x="3777.78" y="18310"/><path d="M 3777.78 18310 2977.78 18310 2967.03 18320.74 2950 18320.54 M 2967.03 18320.74 2950 17300" fill="none" stroke-width="406.4"/><use xlink:href="#uo0HlYO3CLBMMvt0scWs_pad-15" x="21276.4" y="18400"/><path d="M 19700 19200 19700 20050 M 19700 19200 20500 18400 21276.4 18400 M 22350 18400 22450 18300 M 22350 18400 21276.4 18400 M 17400 21750 15050 21750 M 17400 21750 19700 21750 M 24800 20350 26000 20350 M 24800 20350 24500 20050 22200 20050 M 24300 19850 24500 20050 M 24300 19850 24300 18450 24150 18300" fill="none" stroke-width="406.4"/><use xlink:href="#uo0HlYO3CLBMMvt0scWs_pad-15" x="16210" y="19800"/><path d="M 15020 20020 15020 18300 M 15020 20020 15050 20050 M 15300 19800 16210 19800 M 15300 19800 15050 20050" fill="none" stroke-width="406.4"/><use xlink:href="#uo0HlYO3CLBMMvt0scWs_pad-15" x="10824.98" y="14780"/><path d="M 10824.98 14780 9220 14780 8950 15050 8950 15200 M 8700 25100 5850 25100 5750 25000 M 9200 24600 9200 24400 M 9200 24600 8700 25100" fill="none" stroke-width="406.4"/><use xlink:href="#uo0HlYO3CLBMMvt0scWs_pad-15" x="9200" y="24400"/><use xlink:href="#uo0HlYO3CLBMMvt0scWs_pad-15" x="4998" y="20876"/><path d="M 4998 20876 4998 22902 M 4570 23330 3810 23330 M 4570 23330 4998 22902 M 12950 20700 12950 19500" fill="none" stroke-width="406.4"/><use xlink:href="#uo0HlYO3CLBMMvt0scWs_pad-15" x="12950" y="20700"/><path d="M 12950 20700 12950 22000 M 4850 19200 4650 19400 M 4850 19200 4850 18500 4850 17500 4650 17300" fill="none" stroke-width="406.4"/><use xlink:href="#uo0HlYO3CLBMMvt0scWs_pad-15" x="5750" y="18500"/><path d="M 5750 18500 4850 18500" fill="none" stroke-width="406.4"/><use xlink:href="#uo0HlYO3CLBMMvt0scWs_pad-15" x="9200" y="19065"/><path d="M 9200 19065 9200 21050 8100 21050 M 9200 23050 8100 24150 M 9200 23050 9200 19065 9200 18100 8950 17600 M 3810 21630 2777.36 21652.09 2712.63 21587.37 M 2712.63 20887.37 1993.6 20168.34 M 1993.6 14426.87 2672.52 13715.4 M 1993.6 14426.87 1993.6 20168.34 M 2672.52 13715.4 4650 13715.4 M 7250 13750 7250 15200 M 7250 13750 7215.4 13715.4 M 4650 13715.4 4650 15200 M 7215.4 13715.4 19415.4 13715.4" fill="none" stroke-width="406.4"/><use xlink:href="#uo0HlYO3CLBMMvt0scWs_pad-15" x="20585.6" y="14932.49"/><use xlink:href="#uo0HlYO3CLBMMvt0scWs_pad-15" x="18550" y="19900"/><path d="M 20585.6 14932.49 20585.6 14885.6 19415.4 13715.4 M 4050 25000 3850 25000 2712.63 23862.63 2712.63 21587.37 2712.63 20887.37 M 17550 19900 18550 19900 M 17550 19900 17400 20050 M 7215.4 13715.4 4650 13715.4" fill="none" stroke-width="406.4"/><use xlink:href="#uo0HlYO3CLBMMvt0scWs_pad-15" x="27634.6" y="18600"/><path d="M 28550 18600 28550 19600 M 28550 18600 28550 17575 M 28550 18600 27634.6 18600" fill="none" stroke-width="406.4"/><use xlink:href="#uo0HlYO3CLBMMvt0scWs_pad-15" x="27359.6" y="14400"/><path d="M 27359.6 14400 28550 14400" fill="none" stroke-width="304.8"/><path d="M 24410 10910 24410 9140 24500 9050" fill="none" stroke-width="406.4"/><use xlink:href="#uo0HlYO3CLBMMvt0scWs_pad-15" x="5900" y="8400"/><path d="M 5900 7500 6000 7400 M 5900 7500 5900 8400" fill="none" stroke-width="406.4"/><use xlink:href="#uo0HlYO3CLBMMvt0scWs_pad-15" x="13934.6" y="8100"/><use xlink:href="#uo0HlYO3CLBMMvt0scWs_pad-15" x="13100" y="5400"/><path d="M 13100 5400 13500 5400 M 13934.6 5834.6 13934.6 8100 M 13934.6 5834.6 13500 5400" fill="none" stroke-width="406.4"/><use xlink:href="#uo0HlYO3CLBMMvt0scWs_pad-15" x="10121.6" y="4958.73"/><path d="M 10121.6 4958.73 10121.6 8390.41 9958.52 8553.49" fill="none" stroke-width="254"/><use xlink:href="#uo0HlYO3CLBMMvt0scWs_pad-15" x="9958.52" y="8553.49"/><use xlink:href="#uo0HlYO3CLBMMvt0scWs_pad-15" x="27690" y="7910"/><path d="M 28550 8750 28550 8920 M 28550 8750 27690 7910 M 23550 2430 23550 1600 M 23550 2430 24410 3290 M 8100 9550 8093.6 9556.4 7481.66 9556.4 7243.6 9318.34 7243.6 7781.66 7250 7775.26 7250 6400 7250 4900 M 8050 6400 8100 6450 M 8050 6400 7250 6400 M 7250 4900 7279.3 4870.7 7279.3 4154.53 7590.23 3843.6 10116.07 3843.6 10868.87 4596.4 M 11250 6800 11250 9300 M 24771.14 4596.4 25178.6 5003.86 M 25178.6 6033.34 25445.26 6300 26100 6300 M 11200 4596.4 10868.87 4596.4 M 11200 4596.4 24771.14 4596.4 M 25178.6 5003.86 25178.6 6033.34 M 26900 10860 26950 10910 M 26900 7100 26100 6300 M 26900 7100 26900 10860 M 11250 6800 11250 4646.4 11200 4596.4 M 2950 4600 2950 2500 M 2950 6700 2950 7450 M 3300 7800 3600 7800 M 3300 7800 2950 7450" fill="none" stroke-width="406.4"/><use xlink:href="#uo0HlYO3CLBMMvt0scWs_pad-15" x="3600" y="7800"/><use xlink:href="#uo0HlYO3CLBMMvt0scWs_pad-15" x="3750" y="5650"/><path d="M 2950 5600 2950 4600 M 2950 5600 2950 6700 M 3000 5650 2950 5600 M 3000 5650 3750 5650 M 19700 5900 19700 7350 M 19700 5900 20100 5500 21300 5500 22350 5500 22450 5600" fill="none" stroke-width="406.4"/><use xlink:href="#uo0HlYO3CLBMMvt0scWs_pad-15" x="21300" y="5500"/><path d="M 19700 9050 17400 9050 15050 9050 M 22200 7350 24300 7350 24500 7350 M 24300 5750 24150 5600 M 24300 5750 24300 7350 M 25700 7350 26000 7650 M 25700 7350 24500 7350 M 15050 7350 15050 7100 16200 7100" fill="none" stroke-width="406.4"/><use xlink:href="#uo0HlYO3CLBMMvt0scWs_pad-15" x="16200" y="7100"/><path d="M 15050 5640 15180 5510 M 15050 5640 15050 7350" fill="none" stroke-width="406.4"/><use xlink:href="#uo0HlYO3CLBMMvt0scWs_pad-15" x="10824.98" y="2080"/><path d="M 10824.98 2080 9370 2080 8950 2500 M 5850 12300 6050 12500 M 5850 12300 5750 12300 M 6050 12500 9000 12500 9200 12300" fill="none" stroke-width="406.4"/><use xlink:href="#uo0HlYO3CLBMMvt0scWs_pad-15" x="9200" y="12300"/><use xlink:href="#uo0HlYO3CLBMMvt0scWs_pad-15" x="4800" y="8000"/><path d="M 4800 8000 4800 10240 4410 10630 3810 10630 M 12950 9300 12950 8100 12950 6800" fill="none" stroke-width="406.4"/><use xlink:href="#uo0HlYO3CLBMMvt0scWs_pad-15" x="12950" y="8100"/><use xlink:href="#uo0HlYO3CLBMMvt0scWs_pad-15" x="5750" y="5600"/><path d="M 4650 5600 4650 6700 M 4650 5600 4650 4600 M 4650 5600 5750 5600" fill="none" stroke-width="406.4"/><use xlink:href="#uo0HlYO3CLBMMvt0scWs_pad-15" x="9131.4" y="6391.6"/><path d="M 9131.4 6391.6 9131.4 5081.4 8950 4900 M 9131.4 6391.6 9131.4 8300 9131.4 10418.6 8100 11450 M 8100 8350 9081.4 8350 9131.4 8300 M 4050 12300 3300 12300 M 1600 6990.41 1600 2100 M 2606.4 8900 2606.4 11606.4 M 2606.4 8900 2606.4 7996.81 1600 6990.41 M 1600 2100 2404.6 1295.4" fill="none" stroke-width="406.4"/><use xlink:href="#uo0HlYO3CLBMMvt0scWs_pad-15" x="20590" y="2332.49"/><path d="M 3300 12300 2606.4 11606.4 M 2404.6 1295.4 4600 1295.4 7200 1295.4 M 3810 8930 2636.4 8930 2606.4 8900 M 4650 2500 4650 1345.4 4600 1295.4 M 7250 1345.4 7250 2500 M 7250 1345.4 7200 1295.4 M 20590 1832.49 20590 2332.49 M 20590 1832.49 20052.91 1295.4 7200 1295.4" fill="none" stroke-width="406.4"/><use xlink:href="#uo0HlYO3CLBMMvt0scWs_pad-15" x="18568.6" y="6750"/><path d="M 17999.99 6750 17400 7349.99 17400 7350 M 17999.99 6750 18568.6 6750" fill="none" stroke-width="304.8"/><path d="M 28550 6900 28550 4875 M 28550 6400 27384.6 6400 M 28550 6400 28550 6900" fill="none" stroke-width="406.4"/><use xlink:href="#uo0HlYO3CLBMMvt0scWs_pad-15" x="27384.6" y="6400"/><use xlink:href="#uo0HlYO3CLBMMvt0scWs_pad-15" x="27518.6" y="1600"/><path d="M 28550 1600 28650 1700 M 28550 1600 27518.6 1600" fill="none" stroke-width="304.8"/></g></svg>