<svg version="1.1" xmlns="http://www.w3.org/2000/svg" xmlns:xlink="http://www.w3.org/1999/xlink" stroke-linecap="round" stroke-linejoin="round" stroke-width="0" fill-rule="evenodd" width="29.3796mm" height="24.0796mm" viewBox="1325 1425 29379.6 24079.6" id="_keAOWeFSXijF8e9X2-m"><defs><circle cx="0" cy="0" r="450" id="_keAOWeFSXijF8e9X2-m_pad-1"/><circle cx="0" cy="0" r="175" id="_keAOWeFSXijF8e9X2-m_pad-2"/></defs><g transform="translate(0,26929.6) scale(1,-1)" fill="currentColor" stroke="currentColor"><use xlink:href="#_keAOWeFSXijF8e9X2-m_pad-1" x="16790" y="3290"/><use xlink:href="#_keAOWeFSXijF8e9X2-m_pad-1" x="11710" y="15990"/><use xlink:href="#_keAOWeFSXijF8e9X2-m_pad-1" x="14250" y="15990"/><use xlink:href="#_keAOWeFSXijF8e9X2-m_pad-1" x="16790" y="15990"/><use xlink:href="#_keAOWeFSXijF8e9X2-m_pad-1" x="19330" y="15990"/><use xlink:href="#_keAOWeFSXijF8e9X2-m_pad-1" x="21870" y="15990"/><use xlink:href="#_keAOWeFSXijF8e9X2-m_pad-1" x="24410" y="15990"/><use xlink:href="#_keAOWeFSXijF8e9X2-m_pad-1" x="26950" y="15990"/><use xlink:href="#_keAOWeFSXijF8e9X2-m_pad-1" x="29490" y="15990"/><use xlink:href="#_keAOWeFSXijF8e9X2-m_pad-1" x="29490" y="23610"/><use xlink:href="#_keAOWeFSXijF8e9X2-m_pad-1" x="26950" y="23610"/><use xlink:href="#_keAOWeFSXijF8e9X2-m_pad-1" x="24410" y="23610"/><use xlink:href="#_keAOWeFSXijF8e9X2-m_pad-1" x="21870" y="23610"/><use xlink:href="#_keAOWeFSXijF8e9X2-m_pad-1" x="19330" y="23610"/><use xlink:href="#_keAOWeFSXijF8e9X2-m_pad-1" x="16790" y="23610"/><use xlink:href="#_keAOWeFSXijF8e9X2-m_pad-1" x="14250" y="23610"/><use xlink:href="#_keAOWeFSXijF8e9X2-m_pad-1" x="11710" y="23610"/><use xlink:href="#_keAOWeFSXijF8e9X2-m_pad-1" x="11710" y="3290"/><use xlink:href="#_keAOWeFSXijF8e9X2-m_pad-1" x="14250" y="3290"/><use xlink:href="#_keAOWeFSXijF8e9X2-m_pad-1" x="19330" y="3290"/><use xlink:href="#_keAOWeFSXijF8e9X2-m_pad-1" x="21870" y="3290"/><use xlink:href="#_keAOWeFSXijF8e9X2-m_pad-1" x="24410" y="3290"/><use xlink:href="#_keAOWeFSXijF8e9X2-m_pad-1" x="26950" y="3290"/><use xlink:href="#_keAOWeFSXijF8e9X2-m_pad-1" x="29490" y="3290"/><use xlink:href="#_keAOWeFSXijF8e9X2-m_pad-1" x="29490" y="10910"/><use xlink:href="#_keAOWeFSXijF8e9X2-m_pad-1" x="26950" y="10910"/><use xlink:href="#_keAOWeFSXijF8e9X2-m_pad-1" x="24410" y="10910"/><use xlink:href="#_keAOWeFSXijF8e9X2-m_pad-1" x="21870" y="10910"/><use xlink:href="#_keAOWeFSXijF8e9X2-m_pad-1" x="19330" y="10910"/><use xlink:href="#_keAOWeFSXijF8e9X2-m_pad-1" x="16790" y="10910"/><use xlink:href="#_keAOWeFSXijF8e9X2-m_pad-1" x="14250" y="10910"/><use xlink:href="#_keAOWeFSXijF8e9X2-m_pad-1" x="11710" y="10910"/><use xlink:href="#_keAOWeFSXijF8e9X2-m_pad-2" x="23140" y="10084.98"/><use xlink:href="#_keAOWeFSXijF8e9X2-m_pad-2" x="27200" y="5340.4"/><use xlink:href="#_keAOWeFSXijF8e9X2-m_pad-2" x="6831.4" y="11600"/><use xlink:href="#_keAOWeFSXijF8e9X2-m_pad-2" x="18600" y="8061.11"/><use xlink:href="#_keAOWeFSXijF8e9X2-m_pad-2" x="18590.59" y="5781"/><use xlink:href="#_keAOWeFSXijF8e9X2-m_pad-2" x="6000" y="21100"/><use xlink:href="#_keAOWeFSXijF8e9X2-m_pad-2" x="13199.99" y="18168.6"/><use xlink:href="#_keAOWeFSXijF8e9X2-m_pad-2" x="13934.6" y="20700"/><use xlink:href="#_keAOWeFSXijF8e9X2-m_pad-2" x="10100" y="21308.4"/><use xlink:href="#_keAOWeFSXijF8e9X2-m_pad-2" x="10121.6" y="17700"/><use xlink:href="#_keAOWeFSXijF8e9X2-m_pad-2" x="27638.89" y="20561.11"/><use xlink:href="#_keAOWeFSXijF8e9X2-m_pad-2" x="3938.4" y="20502.12"/><use xlink:href="#_keAOWeFSXijF8e9X2-m_pad-2" x="3777.78" y="18310"/><use xlink:href="#_keAOWeFSXijF8e9X2-m_pad-2" x="21276.4" y="18400"/><use xlink:href="#_keAOWeFSXijF8e9X2-m_pad-2" x="16210" y="19800"/><use xlink:href="#_keAOWeFSXijF8e9X2-m_pad-2" x="10824.98" y="14780"/><use xlink:href="#_keAOWeFSXijF8e9X2-m_pad-2" x="9200" y="24400"/><use xlink:href="#_keAOWeFSXijF8e9X2-m_pad-2" x="4998" y="20876"/><use xlink:href="#_keAOWeFSXijF8e9X2-m_pad-2" x="12950" y="20700"/><use xlink:href="#_keAOWeFSXijF8e9X2-m_pad-2" x="5750" y="18500"/><use xlink:href="#_keAOWeFSXijF8e9X2-m_pad-2" x="9200" y="19065"/><use xlink:href="#_keAOWeFSXijF8e9X2-m_pad-2" x="20585.6" y="14932.49"/><use xlink:href="#_keAOWeFSXijF8e9X2-m_pad-2" x="20600" y="22800"/><use xlink:href="#_keAOWeFSXijF8e9X2-m_pad-2" x="27634.6" y="18600"/><use xlink:href="#_keAOWeFSXijF8e9X2-m_pad-2" x="27359.6" y="14400"/><use xlink:href="#_keAOWeFSXijF8e9X2-m_pad-2" x="5900" y="8400"/><use xlink:href="#_keAOWeFSXijF8e9X2-m_pad-2" x="13934.6" y="8100"/><use xlink:href="#_keAOWeFSXijF8e9X2-m_pad-2" x="13100" y="5400"/><use xlink:href="#_keAOWeFSXijF8e9X2-m_pad-2" x="10121.6" y="4958.73"/><use xlink:href="#_keAOWeFSXijF8e9X2-m_pad-2" x="9958.52" y="8553.49"/><use xlink:href="#_keAOWeFSXijF8e9X2-m_pad-2" x="27690" y="7910"/><use xlink:href="#_keAOWeFSXijF8e9X2-m_pad-2" x="3600" y="7800"/><use xlink:href="#_keAOWeFSXijF8e9X2-m_pad-2" x="3750" y="5650"/><use xlink:href="#_keAOWeFSXijF8e9X2-m_pad-2" x="21300" y="5500"/><use xlink:href="#_keAOWeFSXijF8e9X2-m_pad-2" x="16200" y="7100"/><use xlink:href="#_keAOWeFSXijF8e9X2-m_pad-2" x="10824.98" y="2080"/><use xlink:href="#_keAOWeFSXijF8e9X2-m_pad-2" x="9200" y="12300"/><use xlink:href="#_keAOWeFSXijF8e9X2-m_pad-2" x="4800" y="8000"/><use xlink:href="#_keAOWeFSXijF8e9X2-m_pad-2" x="12950" y="8100"/><use xlink:href="#_keAOWeFSXijF8e9X2-m_pad-2" x="5750" y="5600"/><use xlink:href="#_keAOWeFSXijF8e9X2-m_pad-2" x="9131.4" y="6391.6"/><use xlink:href="#_keAOWeFSXijF8e9X2-m_pad-2" x="20590" y="2332.49"/><use xlink:href="#_keAOWeFSXijF8e9X2-m_pad-2" x="18568.6" y="6750"/><use xlink:href="#_keAOWeFSXijF8e9X2-m_pad-2" x="27384.6" y="6400"/><use xlink:href="#_keAOWeFSXijF8e9X2-m_pad-2" x="27518.6" y="1600"/><use xlink:href="#_keAOWeFSXijF8e9X2-m_pad-2" x="2800" y="25100"/><use xlink:href="#_keAOWeFSXijF8e9X2-m_pad-2" x="20914.01" y="19576.4"/><use xlink:href="#_keAOWeFSXijF8e9X2-m_pad-2" x="22400" y="25200"/><use xlink:href="#_keAOWeFSXijF8e9X2-m_pad-2" x="28231.4" y="22828.6"/><use xlink:href="#_keAOWeFSXijF8e9X2-m_pad-2" x="29979.99" y="25329.6"/><use xlink:href="#_keAOWeFSXijF8e9X2-m_pad-2" x="19000" y="25200"/><use xlink:href="#_keAOWeFSXijF8e9X2-m_pad-2" x="1600" y="13700"/><use xlink:href="#_keAOWeFSXijF8e9X2-m_pad-2" x="30529.6" y="12154.58"/><use xlink:href="#_keAOWeFSXijF8e9X2-m_pad-2" x="28231.4" y="10128.6"/><use xlink:href="#_keAOWeFSXijF8e9X2-m_pad-2" x="21120" y="6715.02"/><use xlink:href="#_keAOWeFSXijF8e9X2-m_pad-2" x="17300" y="12500"/><use xlink:href="#_keAOWeFSXijF8e9X2-m_pad-2" x="10895.2" y="12495.2"/><use xlink:href="#_keAOWeFSXijF8e9X2-m_pad-2" x="10200" y="15800"/><use xlink:href="#_keAOWeFSXijF8e9X2-m_pad-2" x="26000" y="21700"/><use xlink:href="#_keAOWeFSXijF8e9X2-m_pad-2" x="10200" y="23300"/><use xlink:href="#_keAOWeFSXijF8e9X2-m_pad-2" x="18550" y="20900"/><use xlink:href="#_keAOWeFSXijF8e9X2-m_pad-2" x="7021.6" y="24276"/><use xlink:href="#_keAOWeFSXijF8e9X2-m_pad-2" x="18676.4" y="18283.19"/><use xlink:href="#_keAOWeFSXijF8e9X2-m_pad-2" x="18550" y="19900"/><use xlink:href="#_keAOWeFSXijF8e9X2-m_pad-2" x="23250" y="22600"/><use xlink:href="#_keAOWeFSXijF8e9X2-m_pad-2" x="1600" y="20900"/><use xlink:href="#_keAOWeFSXijF8e9X2-m_pad-2" x="27000" y="17500"/><use xlink:href="#_keAOWeFSXijF8e9X2-m_pad-2" x="14399.99" y="25129.6"/><use xlink:href="#_keAOWeFSXijF8e9X2-m_pad-2" x="26300" y="14400"/><use xlink:href="#_keAOWeFSXijF8e9X2-m_pad-2" x="26500" y="1600"/><use xlink:href="#_keAOWeFSXijF8e9X2-m_pad-2" x="1500" y="8100"/><use xlink:href="#_keAOWeFSXijF8e9X2-m_pad-2" x="10200" y="3000"/><use xlink:href="#_keAOWeFSXijF8e9X2-m_pad-2" x="10121.6" y="10200"/><use xlink:href="#_keAOWeFSXijF8e9X2-m_pad-2" x="20568.62" y="10053.6"/><use xlink:href="#_keAOWeFSXijF8e9X2-m_pad-2" x="25800" y="9000"/><use xlink:href="#_keAOWeFSXijF8e9X2-m_pad-2" x="21700" y="12500"/><use xlink:href="#_keAOWeFSXijF8e9X2-m_pad-2" x="16340.4" y="12500"/></g></svg>