<svg version="1.1" xmlns="http://www.w3.org/2000/svg" xmlns:xlink="http://www.w3.org/1999/xlink" stroke-linecap="round" stroke-linejoin="round" stroke-width="0" fill-rule="evenodd" width="29.903200000000002mm" height="24.8032mm" viewBox="1098.4 998.4 29903.2 24803.2" id="BM-n5IQJjXnO6qrJ-8KP"><defs><circle cx="0" cy="0" r="1001.6" id="BM-n5IQJjXnO6qrJ-8KP_pad-10"/><rect x="-651.6" y="-601.6" width="1303.2" height="1203.2" id="BM-n5IQJjXnO6qrJ-8KP_pad-11"/><rect x="-601.6" y="-651.6" width="1203.2" height="1303.2" id="BM-n5IQJjXnO6qrJ-8KP_pad-12"/><rect x="-516.6" y="-416.6" width="1033.2" height="833.2" id="BM-n5IQJjXnO6qrJ-8KP_pad-13"/><rect x="-551.6" y="-501.6" width="1103.2" height="1003.2" id="BM-n5IQJjXnO6qrJ-8KP_pad-14"/></defs><g transform="translate(0,26800) scale(1,-1)" fill="currentColor" stroke="currentColor"><use xlink:href="#BM-n5IQJjXnO6qrJ-8KP_pad-10" x="11710" y="15990"/><use xlink:href="#BM-n5IQJjXnO6qrJ-8KP_pad-10" x="14250" y="15990"/><use xlink:href="#BM-n5IQJjXnO6qrJ-8KP_pad-10" x="16790" y="15990"/><use xlink:href="#BM-n5IQJjXnO6qrJ-8KP_pad-10" x="19330" y="15990"/><use xlink:href="#BM-n5IQJjXnO6qrJ-8KP_pad-10" x="21870" y="15990"/><use xlink:href="#BM-n5IQJjXnO6qrJ-8KP_pad-10" x="24410" y="15990"/><use xlink:href="#BM-n5IQJjXnO6qrJ-8KP_pad-10" x="26950" y="15990"/><use xlink:href="#BM-n5IQJjXnO6qrJ-8KP_pad-10" x="29490" y="15990"/><use xlink:href="#BM-n5IQJjXnO6qrJ-8KP_pad-10" x="29490" y="23610"/><use xlink:href="#BM-n5IQJjXnO6qrJ-8KP_pad-10" x="26950" y="23610"/><use xlink:href="#BM-n5IQJjXnO6qrJ-8KP_pad-10" x="24410" y="23610"/><use xlink:href="#BM-n5IQJjXnO6qrJ-8KP_pad-10" x="21870" y="23610"/><use xlink:href="#BM-n5IQJjXnO6qrJ-8KP_pad-10" x="19330" y="23610"/><use xlink:href="#BM-n5IQJjXnO6qrJ-8KP_pad-10" x="16790" y="23610"/><use xlink:href="#BM-n5IQJjXnO6qrJ-8KP_pad-10" x="14250" y="23610"/><use xlink:href="#BM-n5IQJjXnO6qrJ-8KP_pad-10" x="11710" y="23610"/><use xlink:href="#BM-n5IQJjXnO6qrJ-8KP_pad-11" x="15950" y="25200"/><use xlink:href="#BM-n5IQJjXnO6qrJ-8KP_pad-11" x="17650" y="25200"/><use xlink:href="#BM-n5IQJjXnO6qrJ-8KP_pad-11" x="25350" y="25200"/><use xlink:href="#BM-n5IQJjXnO6qrJ-8KP_pad-11" x="23650" y="25200"/><use xlink:href="#BM-n5IQJjXnO6qrJ-8KP_pad-12" x="1700" y="23450"/><use xlink:href="#BM-n5IQJjXnO6qrJ-8KP_pad-12" x="1700" y="25150"/><use xlink:href="#BM-n5IQJjXnO6qrJ-8KP_pad-11" x="19700" y="20050"/><use xlink:href="#BM-n5IQJjXnO6qrJ-8KP_pad-11" x="19700" y="21750"/><use xlink:href="#BM-n5IQJjXnO6qrJ-8KP_pad-12" x="22200" y="21750"/><use xlink:href="#BM-n5IQJjXnO6qrJ-8KP_pad-12" x="22200" y="20050"/><use xlink:href="#BM-n5IQJjXnO6qrJ-8KP_pad-13" x="26000" y="20350"/><use xlink:href="#BM-n5IQJjXnO6qrJ-8KP_pad-13" x="26000" y="18050"/><use xlink:href="#BM-n5IQJjXnO6qrJ-8KP_pad-11" x="15050" y="20050"/><use xlink:href="#BM-n5IQJjXnO6qrJ-8KP_pad-11" x="15050" y="21750"/><use xlink:href="#BM-n5IQJjXnO6qrJ-8KP_pad-11" x="16720" y="18300"/><use xlink:href="#BM-n5IQJjXnO6qrJ-8KP_pad-11" x="15020" y="18300"/><use xlink:href="#BM-n5IQJjXnO6qrJ-8KP_pad-12" x="17400" y="21750"/><use xlink:href="#BM-n5IQJjXnO6qrJ-8KP_pad-12" x="17400" y="20050"/><use xlink:href="#BM-n5IQJjXnO6qrJ-8KP_pad-11" x="2950" y="19400"/><use xlink:href="#BM-n5IQJjXnO6qrJ-8KP_pad-11" x="4650" y="19400"/><use xlink:href="#BM-n5IQJjXnO6qrJ-8KP_pad-11" x="2950" y="17300"/><use xlink:href="#BM-n5IQJjXnO6qrJ-8KP_pad-11" x="4650" y="17300"/><use xlink:href="#BM-n5IQJjXnO6qrJ-8KP_pad-11" x="12950" y="22000"/><use xlink:href="#BM-n5IQJjXnO6qrJ-8KP_pad-11" x="11250" y="22000"/><use xlink:href="#BM-n5IQJjXnO6qrJ-8KP_pad-14" x="8100" y="24150"/><use xlink:href="#BM-n5IQJjXnO6qrJ-8KP_pad-14" x="8100" y="22250"/><use xlink:href="#BM-n5IQJjXnO6qrJ-8KP_pad-14" x="6000" y="23200"/><use xlink:href="#BM-n5IQJjXnO6qrJ-8KP_pad-14" x="8100" y="21050"/><use xlink:href="#BM-n5IQJjXnO6qrJ-8KP_pad-14" x="8100" y="19150"/><use xlink:href="#BM-n5IQJjXnO6qrJ-8KP_pad-14" x="6000" y="20100"/><use xlink:href="#BM-n5IQJjXnO6qrJ-8KP_pad-12" x="28550" y="19600"/><use xlink:href="#BM-n5IQJjXnO6qrJ-8KP_pad-12" x="30250" y="19600"/><use xlink:href="#BM-n5IQJjXnO6qrJ-8KP_pad-12" x="28550" y="21620"/><use xlink:href="#BM-n5IQJjXnO6qrJ-8KP_pad-12" x="30250" y="21620"/><use xlink:href="#BM-n5IQJjXnO6qrJ-8KP_pad-11" x="25150" y="14400"/><use xlink:href="#BM-n5IQJjXnO6qrJ-8KP_pad-11" x="23450" y="14400"/><use xlink:href="#BM-n5IQJjXnO6qrJ-8KP_pad-11" x="30250" y="17575"/><use xlink:href="#BM-n5IQJjXnO6qrJ-8KP_pad-11" x="28550" y="17575"/><use xlink:href="#BM-n5IQJjXnO6qrJ-8KP_pad-11" x="30250" y="14400"/><use xlink:href="#BM-n5IQJjXnO6qrJ-8KP_pad-11" x="28550" y="14400"/><use xlink:href="#BM-n5IQJjXnO6qrJ-8KP_pad-11" x="24500" y="20050"/><use xlink:href="#BM-n5IQJjXnO6qrJ-8KP_pad-11" x="24500" y="21750"/><use xlink:href="#BM-n5IQJjXnO6qrJ-8KP_pad-12" x="24150" y="18300"/><use xlink:href="#BM-n5IQJjXnO6qrJ-8KP_pad-12" x="22450" y="18300"/><use xlink:href="#BM-n5IQJjXnO6qrJ-8KP_pad-12" x="7250" y="15200"/><use xlink:href="#BM-n5IQJjXnO6qrJ-8KP_pad-12" x="8950" y="15200"/><use xlink:href="#BM-n5IQJjXnO6qrJ-8KP_pad-12" x="4050" y="25000"/><use xlink:href="#BM-n5IQJjXnO6qrJ-8KP_pad-12" x="5750" y="25000"/><use xlink:href="#BM-n5IQJjXnO6qrJ-8KP_pad-11" x="3810" y="21630"/><use xlink:href="#BM-n5IQJjXnO6qrJ-8KP_pad-11" x="3810" y="23330"/><use xlink:href="#BM-n5IQJjXnO6qrJ-8KP_pad-12" x="4650" y="15200"/><use xlink:href="#BM-n5IQJjXnO6qrJ-8KP_pad-12" x="2950" y="15200"/><use xlink:href="#BM-n5IQJjXnO6qrJ-8KP_pad-12" x="12950" y="19500"/><use xlink:href="#BM-n5IQJjXnO6qrJ-8KP_pad-12" x="11250" y="19500"/><use xlink:href="#BM-n5IQJjXnO6qrJ-8KP_pad-12" x="8950" y="17600"/><use xlink:href="#BM-n5IQJjXnO6qrJ-8KP_pad-12" x="7250" y="17600"/><use xlink:href="#BM-n5IQJjXnO6qrJ-8KP_pad-10" x="11710" y="3290"/><use xlink:href="#BM-n5IQJjXnO6qrJ-8KP_pad-10" x="14250" y="3290"/><use xlink:href="#BM-n5IQJjXnO6qrJ-8KP_pad-10" x="16790" y="3290"/><use xlink:href="#BM-n5IQJjXnO6qrJ-8KP_pad-10" x="19330" y="3290"/><use xlink:href="#BM-n5IQJjXnO6qrJ-8KP_pad-10" x="21870" y="3290"/><use xlink:href="#BM-n5IQJjXnO6qrJ-8KP_pad-10" x="24410" y="3290"/><use xlink:href="#BM-n5IQJjXnO6qrJ-8KP_pad-10" x="26950" y="3290"/><use xlink:href="#BM-n5IQJjXnO6qrJ-8KP_pad-10" x="29490" y="3290"/><use xlink:href="#BM-n5IQJjXnO6qrJ-8KP_pad-10" x="29490" y="10910"/><use xlink:href="#BM-n5IQJjXnO6qrJ-8KP_pad-10" x="26950" y="10910"/><use xlink:href="#BM-n5IQJjXnO6qrJ-8KP_pad-10" x="24410" y="10910"/><use xlink:href="#BM-n5IQJjXnO6qrJ-8KP_pad-10" x="21870" y="10910"/><use xlink:href="#BM-n5IQJjXnO6qrJ-8KP_pad-10" x="19330" y="10910"/><use xlink:href="#BM-n5IQJjXnO6qrJ-8KP_pad-10" x="16790" y="10910"/><use xlink:href="#BM-n5IQJjXnO6qrJ-8KP_pad-10" x="14250" y="10910"/><use xlink:href="#BM-n5IQJjXnO6qrJ-8KP_pad-10" x="11710" y="10910"/><use xlink:href="#BM-n5IQJjXnO6qrJ-8KP_pad-11" x="15150" y="12500"/><use xlink:href="#BM-n5IQJjXnO6qrJ-8KP_pad-11" x="13450" y="12500"/><use xlink:href="#BM-n5IQJjXnO6qrJ-8KP_pad-11" x="20150" y="12500"/><use xlink:href="#BM-n5IQJjXnO6qrJ-8KP_pad-11" x="18450" y="12500"/><use xlink:href="#BM-n5IQJjXnO6qrJ-8KP_pad-12" x="1700" y="10750"/><use xlink:href="#BM-n5IQJjXnO6qrJ-8KP_pad-12" x="1700" y="12450"/><use xlink:href="#BM-n5IQJjXnO6qrJ-8KP_pad-11" x="19700" y="7350"/><use xlink:href="#BM-n5IQJjXnO6qrJ-8KP_pad-11" x="19700" y="9050"/><use xlink:href="#BM-n5IQJjXnO6qrJ-8KP_pad-12" x="22200" y="9050"/><use xlink:href="#BM-n5IQJjXnO6qrJ-8KP_pad-12" x="22200" y="7350"/><use xlink:href="#BM-n5IQJjXnO6qrJ-8KP_pad-13" x="26000" y="7650"/><use xlink:href="#BM-n5IQJjXnO6qrJ-8KP_pad-13" x="26000" y="5350"/><use xlink:href="#BM-n5IQJjXnO6qrJ-8KP_pad-11" x="15050" y="7350"/><use xlink:href="#BM-n5IQJjXnO6qrJ-8KP_pad-11" x="15050" y="9050"/><use xlink:href="#BM-n5IQJjXnO6qrJ-8KP_pad-11" x="16880" y="5510"/><use xlink:href="#BM-n5IQJjXnO6qrJ-8KP_pad-11" x="15180" y="5510"/><use xlink:href="#BM-n5IQJjXnO6qrJ-8KP_pad-12" x="17400" y="9050"/><use xlink:href="#BM-n5IQJjXnO6qrJ-8KP_pad-12" x="17400" y="7350"/><use xlink:href="#BM-n5IQJjXnO6qrJ-8KP_pad-11" x="2950" y="6700"/><use xlink:href="#BM-n5IQJjXnO6qrJ-8KP_pad-11" x="4650" y="6700"/><use xlink:href="#BM-n5IQJjXnO6qrJ-8KP_pad-11" x="2950" y="4600"/><use xlink:href="#BM-n5IQJjXnO6qrJ-8KP_pad-11" x="4650" y="4600"/><use xlink:href="#BM-n5IQJjXnO6qrJ-8KP_pad-11" x="12950" y="9300"/><use xlink:href="#BM-n5IQJjXnO6qrJ-8KP_pad-11" x="11250" y="9300"/><use xlink:href="#BM-n5IQJjXnO6qrJ-8KP_pad-14" x="8100" y="11450"/><use xlink:href="#BM-n5IQJjXnO6qrJ-8KP_pad-14" x="8100" y="9550"/><use xlink:href="#BM-n5IQJjXnO6qrJ-8KP_pad-14" x="6000" y="10500"/><use xlink:href="#BM-n5IQJjXnO6qrJ-8KP_pad-14" x="8100" y="8350"/><use xlink:href="#BM-n5IQJjXnO6qrJ-8KP_pad-14" x="8100" y="6450"/><use xlink:href="#BM-n5IQJjXnO6qrJ-8KP_pad-14" x="6000" y="7400"/><use xlink:href="#BM-n5IQJjXnO6qrJ-8KP_pad-12" x="28550" y="6900"/><use xlink:href="#BM-n5IQJjXnO6qrJ-8KP_pad-12" x="30250" y="6900"/><use xlink:href="#BM-n5IQJjXnO6qrJ-8KP_pad-12" x="28550" y="8920"/><use xlink:href="#BM-n5IQJjXnO6qrJ-8KP_pad-12" x="30250" y="8920"/><use xlink:href="#BM-n5IQJjXnO6qrJ-8KP_pad-11" x="25250" y="1600"/><use xlink:href="#BM-n5IQJjXnO6qrJ-8KP_pad-11" x="23550" y="1600"/><use xlink:href="#BM-n5IQJjXnO6qrJ-8KP_pad-11" x="30250" y="4875"/><use xlink:href="#BM-n5IQJjXnO6qrJ-8KP_pad-11" x="28550" y="4875"/><use xlink:href="#BM-n5IQJjXnO6qrJ-8KP_pad-11" x="30350" y="1700"/><use xlink:href="#BM-n5IQJjXnO6qrJ-8KP_pad-11" x="28650" y="1700"/><use xlink:href="#BM-n5IQJjXnO6qrJ-8KP_pad-11" x="24500" y="7350"/><use xlink:href="#BM-n5IQJjXnO6qrJ-8KP_pad-11" x="24500" y="9050"/><use xlink:href="#BM-n5IQJjXnO6qrJ-8KP_pad-12" x="24150" y="5600"/><use xlink:href="#BM-n5IQJjXnO6qrJ-8KP_pad-12" x="22450" y="5600"/><use xlink:href="#BM-n5IQJjXnO6qrJ-8KP_pad-12" x="7250" y="2500"/><use xlink:href="#BM-n5IQJjXnO6qrJ-8KP_pad-12" x="8950" y="2500"/><use xlink:href="#BM-n5IQJjXnO6qrJ-8KP_pad-12" x="4050" y="12300"/><use xlink:href="#BM-n5IQJjXnO6qrJ-8KP_pad-12" x="5750" y="12300"/><use xlink:href="#BM-n5IQJjXnO6qrJ-8KP_pad-11" x="3810" y="8930"/><use xlink:href="#BM-n5IQJjXnO6qrJ-8KP_pad-11" x="3810" y="10630"/><use xlink:href="#BM-n5IQJjXnO6qrJ-8KP_pad-12" x="4650" y="2500"/><use xlink:href="#BM-n5IQJjXnO6qrJ-8KP_pad-12" x="2950" y="2500"/><use xlink:href="#BM-n5IQJjXnO6qrJ-8KP_pad-12" x="12950" y="6800"/><use xlink:href="#BM-n5IQJjXnO6qrJ-8KP_pad-12" x="11250" y="6800"/><use xlink:href="#BM-n5IQJjXnO6qrJ-8KP_pad-12" x="8950" y="4900"/><use xlink:href="#BM-n5IQJjXnO6qrJ-8KP_pad-12" x="7250" y="4900"/></g></svg>