<svg version="1.1" xmlns="http://www.w3.org/2000/svg" xmlns:xlink="http://www.w3.org/1999/xlink" stroke-linecap="round" stroke-linejoin="round" stroke-width="0" fill-rule="evenodd" width="29.3334mm" height="22.3232mm" viewBox="1158.2 2288.4 29333.4 22323.2" id="oGTMRo5yJ-_kCO6QKx_r"><defs><rect x="-431.8" y="-1117.6" width="863.6" height="2235.2" id="oGTMRo5yJ-_kCO6QKx_r_pad-10"/><circle cx="0" cy="0" r="1001.6" id="oGTMRo5yJ-_kCO6QKx_r_pad-11"/><rect x="-446.6" y="-596.6" width="893.2" height="1193.2" id="oGTMRo5yJ-_kCO6QKx_r_pad-12"/><rect x="-876.6" y="-401.6" width="1753.2" height="803.2" id="oGTMRo5yJ-_kCO6QKx_r_pad-13"/><rect x="-701.6" y="-401.6" width="1403.2" height="803.2" id="oGTMRo5yJ-_kCO6QKx_r_pad-14"/></defs><g transform="translate(0,26900) scale(1,-1)" fill="currentColor" stroke="currentColor"><use xlink:href="#oGTMRo5yJ-_kCO6QKx_r_pad-10" x="1590" y="16526.6"/><use xlink:href="#oGTMRo5yJ-_kCO6QKx_r_pad-10" x="1590" y="22673.4"/><use xlink:href="#oGTMRo5yJ-_kCO6QKx_r_pad-10" x="2860" y="16526.6"/><use xlink:href="#oGTMRo5yJ-_kCO6QKx_r_pad-10" x="4130" y="16526.6"/><use xlink:href="#oGTMRo5yJ-_kCO6QKx_r_pad-10" x="2860" y="22673.4"/><use xlink:href="#oGTMRo5yJ-_kCO6QKx_r_pad-10" x="4130" y="22673.4"/><use xlink:href="#oGTMRo5yJ-_kCO6QKx_r_pad-10" x="5400" y="16526.6"/><use xlink:href="#oGTMRo5yJ-_kCO6QKx_r_pad-10" x="5400" y="22673.4"/><use xlink:href="#oGTMRo5yJ-_kCO6QKx_r_pad-10" x="6670" y="16526.6"/><use xlink:href="#oGTMRo5yJ-_kCO6QKx_r_pad-10" x="7940" y="16526.6"/><use xlink:href="#oGTMRo5yJ-_kCO6QKx_r_pad-10" x="6670" y="22673.4"/><use xlink:href="#oGTMRo5yJ-_kCO6QKx_r_pad-10" x="7940" y="22673.4"/><use xlink:href="#oGTMRo5yJ-_kCO6QKx_r_pad-10" x="9210" y="16526.6"/><use xlink:href="#oGTMRo5yJ-_kCO6QKx_r_pad-10" x="9210" y="22673.4"/><use xlink:href="#oGTMRo5yJ-_kCO6QKx_r_pad-11" x="11710" y="15990"/><use xlink:href="#oGTMRo5yJ-_kCO6QKx_r_pad-11" x="14250" y="15990"/><use xlink:href="#oGTMRo5yJ-_kCO6QKx_r_pad-11" x="16790" y="15990"/><use xlink:href="#oGTMRo5yJ-_kCO6QKx_r_pad-11" x="19330" y="15990"/><use xlink:href="#oGTMRo5yJ-_kCO6QKx_r_pad-11" x="21870" y="15990"/><use xlink:href="#oGTMRo5yJ-_kCO6QKx_r_pad-11" x="24410" y="15990"/><use xlink:href="#oGTMRo5yJ-_kCO6QKx_r_pad-11" x="26950" y="15990"/><use xlink:href="#oGTMRo5yJ-_kCO6QKx_r_pad-11" x="29490" y="15990"/><use xlink:href="#oGTMRo5yJ-_kCO6QKx_r_pad-11" x="29490" y="23610"/><use xlink:href="#oGTMRo5yJ-_kCO6QKx_r_pad-11" x="26950" y="23610"/><use xlink:href="#oGTMRo5yJ-_kCO6QKx_r_pad-11" x="24410" y="23610"/><use xlink:href="#oGTMRo5yJ-_kCO6QKx_r_pad-11" x="21870" y="23610"/><use xlink:href="#oGTMRo5yJ-_kCO6QKx_r_pad-11" x="19330" y="23610"/><use xlink:href="#oGTMRo5yJ-_kCO6QKx_r_pad-11" x="16790" y="23610"/><use xlink:href="#oGTMRo5yJ-_kCO6QKx_r_pad-11" x="14250" y="23610"/><use xlink:href="#oGTMRo5yJ-_kCO6QKx_r_pad-11" x="11710" y="23610"/><use xlink:href="#oGTMRo5yJ-_kCO6QKx_r_pad-12" x="22250" y="21090"/><use xlink:href="#oGTMRo5yJ-_kCO6QKx_r_pad-12" x="21300" y="21090"/><use xlink:href="#oGTMRo5yJ-_kCO6QKx_r_pad-12" x="20350" y="21090"/><use xlink:href="#oGTMRo5yJ-_kCO6QKx_r_pad-12" x="20350" y="18500"/><use xlink:href="#oGTMRo5yJ-_kCO6QKx_r_pad-12" x="22250" y="18500"/><use xlink:href="#oGTMRo5yJ-_kCO6QKx_r_pad-13" x="24200" y="21705"/><use xlink:href="#oGTMRo5yJ-_kCO6QKx_r_pad-13" x="24200" y="20435"/><use xlink:href="#oGTMRo5yJ-_kCO6QKx_r_pad-13" x="24200" y="19165"/><use xlink:href="#oGTMRo5yJ-_kCO6QKx_r_pad-13" x="24200" y="17895"/><use xlink:href="#oGTMRo5yJ-_kCO6QKx_r_pad-13" x="29600" y="17895"/><use xlink:href="#oGTMRo5yJ-_kCO6QKx_r_pad-13" x="29600" y="19165"/><use xlink:href="#oGTMRo5yJ-_kCO6QKx_r_pad-13" x="29600" y="20435"/><use xlink:href="#oGTMRo5yJ-_kCO6QKx_r_pad-13" x="29600" y="21705"/><use xlink:href="#oGTMRo5yJ-_kCO6QKx_r_pad-14" x="17300" y="17895"/><use xlink:href="#oGTMRo5yJ-_kCO6QKx_r_pad-14" x="17300" y="19165"/><use xlink:href="#oGTMRo5yJ-_kCO6QKx_r_pad-14" x="17300" y="20435"/><use xlink:href="#oGTMRo5yJ-_kCO6QKx_r_pad-14" x="17300" y="21705"/><use xlink:href="#oGTMRo5yJ-_kCO6QKx_r_pad-14" x="11700" y="21705"/><use xlink:href="#oGTMRo5yJ-_kCO6QKx_r_pad-14" x="11700" y="20435"/><use xlink:href="#oGTMRo5yJ-_kCO6QKx_r_pad-14" x="11700" y="19165"/><use xlink:href="#oGTMRo5yJ-_kCO6QKx_r_pad-14" x="11700" y="17895"/><use xlink:href="#oGTMRo5yJ-_kCO6QKx_r_pad-10" x="1590" y="3826.6"/><use xlink:href="#oGTMRo5yJ-_kCO6QKx_r_pad-10" x="1590" y="9973.4"/><use xlink:href="#oGTMRo5yJ-_kCO6QKx_r_pad-10" x="2860" y="3826.6"/><use xlink:href="#oGTMRo5yJ-_kCO6QKx_r_pad-10" x="4130" y="3826.6"/><use xlink:href="#oGTMRo5yJ-_kCO6QKx_r_pad-10" x="2860" y="9973.4"/><use xlink:href="#oGTMRo5yJ-_kCO6QKx_r_pad-10" x="4130" y="9973.4"/><use xlink:href="#oGTMRo5yJ-_kCO6QKx_r_pad-10" x="5400" y="3826.6"/><use xlink:href="#oGTMRo5yJ-_kCO6QKx_r_pad-10" x="5400" y="9973.4"/><use xlink:href="#oGTMRo5yJ-_kCO6QKx_r_pad-10" x="6670" y="3826.6"/><use xlink:href="#oGTMRo5yJ-_kCO6QKx_r_pad-10" x="7940" y="3826.6"/><use xlink:href="#oGTMRo5yJ-_kCO6QKx_r_pad-10" x="6670" y="9973.4"/><use xlink:href="#oGTMRo5yJ-_kCO6QKx_r_pad-10" x="7940" y="9973.4"/><use xlink:href="#oGTMRo5yJ-_kCO6QKx_r_pad-10" x="9210" y="3826.6"/><use xlink:href="#oGTMRo5yJ-_kCO6QKx_r_pad-10" x="9210" y="9973.4"/><use xlink:href="#oGTMRo5yJ-_kCO6QKx_r_pad-11" x="11710" y="3290"/><use xlink:href="#oGTMRo5yJ-_kCO6QKx_r_pad-11" x="14250" y="3290"/><use xlink:href="#oGTMRo5yJ-_kCO6QKx_r_pad-11" x="16790" y="3290"/><use xlink:href="#oGTMRo5yJ-_kCO6QKx_r_pad-11" x="19330" y="3290"/><use xlink:href="#oGTMRo5yJ-_kCO6QKx_r_pad-11" x="21870" y="3290"/><use xlink:href="#oGTMRo5yJ-_kCO6QKx_r_pad-11" x="24410" y="3290"/><use xlink:href="#oGTMRo5yJ-_kCO6QKx_r_pad-11" x="26950" y="3290"/><use xlink:href="#oGTMRo5yJ-_kCO6QKx_r_pad-11" x="29490" y="3290"/><use xlink:href="#oGTMRo5yJ-_kCO6QKx_r_pad-11" x="29490" y="10910"/><use xlink:href="#oGTMRo5yJ-_kCO6QKx_r_pad-11" x="26950" y="10910"/><use xlink:href="#oGTMRo5yJ-_kCO6QKx_r_pad-11" x="24410" y="10910"/><use xlink:href="#oGTMRo5yJ-_kCO6QKx_r_pad-11" x="21870" y="10910"/><use xlink:href="#oGTMRo5yJ-_kCO6QKx_r_pad-11" x="19330" y="10910"/><use xlink:href="#oGTMRo5yJ-_kCO6QKx_r_pad-11" x="16790" y="10910"/><use xlink:href="#oGTMRo5yJ-_kCO6QKx_r_pad-11" x="14250" y="10910"/><use xlink:href="#oGTMRo5yJ-_kCO6QKx_r_pad-11" x="11710" y="10910"/><use xlink:href="#oGTMRo5yJ-_kCO6QKx_r_pad-12" x="22250" y="8390"/><use xlink:href="#oGTMRo5yJ-_kCO6QKx_r_pad-12" x="21300" y="8390"/><use xlink:href="#oGTMRo5yJ-_kCO6QKx_r_pad-12" x="20350" y="8390"/><use xlink:href="#oGTMRo5yJ-_kCO6QKx_r_pad-12" x="20350" y="5800"/><use xlink:href="#oGTMRo5yJ-_kCO6QKx_r_pad-12" x="22250" y="5800"/><use xlink:href="#oGTMRo5yJ-_kCO6QKx_r_pad-13" x="24200" y="9005"/><use xlink:href="#oGTMRo5yJ-_kCO6QKx_r_pad-13" x="24200" y="7735"/><use xlink:href="#oGTMRo5yJ-_kCO6QKx_r_pad-13" x="24200" y="6465"/><use xlink:href="#oGTMRo5yJ-_kCO6QKx_r_pad-13" x="24200" y="5195"/><use xlink:href="#oGTMRo5yJ-_kCO6QKx_r_pad-13" x="29600" y="5195"/><use xlink:href="#oGTMRo5yJ-_kCO6QKx_r_pad-13" x="29600" y="6465"/><use xlink:href="#oGTMRo5yJ-_kCO6QKx_r_pad-13" x="29600" y="7735"/><use xlink:href="#oGTMRo5yJ-_kCO6QKx_r_pad-13" x="29600" y="9005"/><use xlink:href="#oGTMRo5yJ-_kCO6QKx_r_pad-14" x="17300" y="5195"/><use xlink:href="#oGTMRo5yJ-_kCO6QKx_r_pad-14" x="17300" y="6465"/><use xlink:href="#oGTMRo5yJ-_kCO6QKx_r_pad-14" x="17300" y="7735"/><use xlink:href="#oGTMRo5yJ-_kCO6QKx_r_pad-14" x="17300" y="9005"/><use xlink:href="#oGTMRo5yJ-_kCO6QKx_r_pad-14" x="11700" y="9005"/><use xlink:href="#oGTMRo5yJ-_kCO6QKx_r_pad-14" x="11700" y="7735"/><use xlink:href="#oGTMRo5yJ-_kCO6QKx_r_pad-14" x="11700" y="6465"/><use xlink:href="#oGTMRo5yJ-_kCO6QKx_r_pad-14" x="11700" y="5195"/></g></svg>