<svg version="1.1" xmlns="http://www.w3.org/2000/svg" xmlns:xlink="http://www.w3.org/1999/xlink" stroke-linecap="round" stroke-linejoin="round" stroke-width="0" fill-rule="evenodd" width="29.7mm" height="24.6mm" viewBox="1200 1100 29700 24600" id="gc5NBzOrlwWaeaR7JPRV"><defs><rect x="-550" y="-500" width="1100" height="1000" id="gc5NBzOrlwWaeaR7JPRV_pad-10"/><rect x="-500" y="-550" width="1000" height="1100" id="gc5NBzOrlwWaeaR7JPRV_pad-11"/><rect x="-415" y="-315" width="830" height="630" id="gc5NBzOrlwWaeaR7JPRV_pad-12"/><rect x="-450" y="-400" width="900" height="800" id="gc5NBzOrlwWaeaR7JPRV_pad-13"/></defs><g transform="translate(0,26800) scale(1,-1)" fill="currentColor" stroke="currentColor"><use xlink:href="#gc5NBzOrlwWaeaR7JPRV_pad-10" x="15950" y="25200"/><use xlink:href="#gc5NBzOrlwWaeaR7JPRV_pad-10" x="17650" y="25200"/><use xlink:href="#gc5NBzOrlwWaeaR7JPRV_pad-10" x="25350" y="25200"/><use xlink:href="#gc5NBzOrlwWaeaR7JPRV_pad-10" x="23650" y="25200"/><use xlink:href="#gc5NBzOrlwWaeaR7JPRV_pad-11" x="1700" y="23450"/><use xlink:href="#gc5NBzOrlwWaeaR7JPRV_pad-11" x="1700" y="25150"/><use xlink:href="#gc5NBzOrlwWaeaR7JPRV_pad-10" x="19700" y="20050"/><use xlink:href="#gc5NBzOrlwWaeaR7JPRV_pad-10" x="19700" y="21750"/><use xlink:href="#gc5NBzOrlwWaeaR7JPRV_pad-11" x="22200" y="21750"/><use xlink:href="#gc5NBzOrlwWaeaR7JPRV_pad-11" x="22200" y="20050"/><use xlink:href="#gc5NBzOrlwWaeaR7JPRV_pad-12" x="26000" y="20350"/><use xlink:href="#gc5NBzOrlwWaeaR7JPRV_pad-12" x="26000" y="18050"/><use xlink:href="#gc5NBzOrlwWaeaR7JPRV_pad-10" x="15050" y="20050"/><use xlink:href="#gc5NBzOrlwWaeaR7JPRV_pad-10" x="15050" y="21750"/><use xlink:href="#gc5NBzOrlwWaeaR7JPRV_pad-10" x="16720" y="18300"/><use xlink:href="#gc5NBzOrlwWaeaR7JPRV_pad-10" x="15020" y="18300"/><use xlink:href="#gc5NBzOrlwWaeaR7JPRV_pad-11" x="17400" y="21750"/><use xlink:href="#gc5NBzOrlwWaeaR7JPRV_pad-11" x="17400" y="20050"/><use xlink:href="#gc5NBzOrlwWaeaR7JPRV_pad-10" x="2950" y="19400"/><use xlink:href="#gc5NBzOrlwWaeaR7JPRV_pad-10" x="4650" y="19400"/><use xlink:href="#gc5NBzOrlwWaeaR7JPRV_pad-10" x="2950" y="17300"/><use xlink:href="#gc5NBzOrlwWaeaR7JPRV_pad-10" x="4650" y="17300"/><use xlink:href="#gc5NBzOrlwWaeaR7JPRV_pad-10" x="12950" y="22000"/><use xlink:href="#gc5NBzOrlwWaeaR7JPRV_pad-10" x="11250" y="22000"/><use xlink:href="#gc5NBzOrlwWaeaR7JPRV_pad-13" x="8100" y="24150"/><use xlink:href="#gc5NBzOrlwWaeaR7JPRV_pad-13" x="8100" y="22250"/><use xlink:href="#gc5NBzOrlwWaeaR7JPRV_pad-13" x="6000" y="23200"/><use xlink:href="#gc5NBzOrlwWaeaR7JPRV_pad-13" x="8100" y="21050"/><use xlink:href="#gc5NBzOrlwWaeaR7JPRV_pad-13" x="8100" y="19150"/><use xlink:href="#gc5NBzOrlwWaeaR7JPRV_pad-13" x="6000" y="20100"/><use xlink:href="#gc5NBzOrlwWaeaR7JPRV_pad-11" x="28550" y="19600"/><use xlink:href="#gc5NBzOrlwWaeaR7JPRV_pad-11" x="30250" y="19600"/><use xlink:href="#gc5NBzOrlwWaeaR7JPRV_pad-11" x="28550" y="21620"/><use xlink:href="#gc5NBzOrlwWaeaR7JPRV_pad-11" x="30250" y="21620"/><use xlink:href="#gc5NBzOrlwWaeaR7JPRV_pad-10" x="25150" y="14400"/><use xlink:href="#gc5NBzOrlwWaeaR7JPRV_pad-10" x="23450" y="14400"/><use xlink:href="#gc5NBzOrlwWaeaR7JPRV_pad-10" x="30250" y="17575"/><use xlink:href="#gc5NBzOrlwWaeaR7JPRV_pad-10" x="28550" y="17575"/><use xlink:href="#gc5NBzOrlwWaeaR7JPRV_pad-10" x="30250" y="14400"/><use xlink:href="#gc5NBzOrlwWaeaR7JPRV_pad-10" x="28550" y="14400"/><use xlink:href="#gc5NBzOrlwWaeaR7JPRV_pad-10" x="24500" y="20050"/><use xlink:href="#gc5NBzOrlwWaeaR7JPRV_pad-10" x="24500" y="21750"/><use xlink:href="#gc5NBzOrlwWaeaR7JPRV_pad-11" x="24150" y="18300"/><use xlink:href="#gc5NBzOrlwWaeaR7JPRV_pad-11" x="22450" y="18300"/><use xlink:href="#gc5NBzOrlwWaeaR7JPRV_pad-11" x="7250" y="15200"/><use xlink:href="#gc5NBzOrlwWaeaR7JPRV_pad-11" x="8950" y="15200"/><use xlink:href="#gc5NBzOrlwWaeaR7JPRV_pad-11" x="4050" y="25000"/><use xlink:href="#gc5NBzOrlwWaeaR7JPRV_pad-11" x="5750" y="25000"/><use xlink:href="#gc5NBzOrlwWaeaR7JPRV_pad-10" x="3810" y="21630"/><use xlink:href="#gc5NBzOrlwWaeaR7JPRV_pad-10" x="3810" y="23330"/><use xlink:href="#gc5NBzOrlwWaeaR7JPRV_pad-11" x="4650" y="15200"/><use xlink:href="#gc5NBzOrlwWaeaR7JPRV_pad-11" x="2950" y="15200"/><use xlink:href="#gc5NBzOrlwWaeaR7JPRV_pad-11" x="12950" y="19500"/><use xlink:href="#gc5NBzOrlwWaeaR7JPRV_pad-11" x="11250" y="19500"/><use xlink:href="#gc5NBzOrlwWaeaR7JPRV_pad-11" x="8950" y="17600"/><use xlink:href="#gc5NBzOrlwWaeaR7JPRV_pad-11" x="7250" y="17600"/><use xlink:href="#gc5NBzOrlwWaeaR7JPRV_pad-10" x="15150" y="12500"/><use xlink:href="#gc5NBzOrlwWaeaR7JPRV_pad-10" x="13450" y="12500"/><use xlink:href="#gc5NBzOrlwWaeaR7JPRV_pad-10" x="20150" y="12500"/><use xlink:href="#gc5NBzOrlwWaeaR7JPRV_pad-10" x="18450" y="12500"/><use xlink:href="#gc5NBzOrlwWaeaR7JPRV_pad-11" x="1700" y="10750"/><use xlink:href="#gc5NBzOrlwWaeaR7JPRV_pad-11" x="1700" y="12450"/><use xlink:href="#gc5NBzOrlwWaeaR7JPRV_pad-10" x="19700" y="7350"/><use xlink:href="#gc5NBzOrlwWaeaR7JPRV_pad-10" x="19700" y="9050"/><use xlink:href="#gc5NBzOrlwWaeaR7JPRV_pad-11" x="22200" y="9050"/><use xlink:href="#gc5NBzOrlwWaeaR7JPRV_pad-11" x="22200" y="7350"/><use xlink:href="#gc5NBzOrlwWaeaR7JPRV_pad-12" x="26000" y="7650"/><use xlink:href="#gc5NBzOrlwWaeaR7JPRV_pad-12" x="26000" y="5350"/><use xlink:href="#gc5NBzOrlwWaeaR7JPRV_pad-10" x="15050" y="7350"/><use xlink:href="#gc5NBzOrlwWaeaR7JPRV_pad-10" x="15050" y="9050"/><use xlink:href="#gc5NBzOrlwWaeaR7JPRV_pad-10" x="16880" y="5510"/><use xlink:href="#gc5NBzOrlwWaeaR7JPRV_pad-10" x="15180" y="5510"/><use xlink:href="#gc5NBzOrlwWaeaR7JPRV_pad-11" x="17400" y="9050"/><use xlink:href="#gc5NBzOrlwWaeaR7JPRV_pad-11" x="17400" y="7350"/><use xlink:href="#gc5NBzOrlwWaeaR7JPRV_pad-10" x="2950" y="6700"/><use xlink:href="#gc5NBzOrlwWaeaR7JPRV_pad-10" x="4650" y="6700"/><use xlink:href="#gc5NBzOrlwWaeaR7JPRV_pad-10" x="2950" y="4600"/><use xlink:href="#gc5NBzOrlwWaeaR7JPRV_pad-10" x="4650" y="4600"/><use xlink:href="#gc5NBzOrlwWaeaR7JPRV_pad-10" x="12950" y="9300"/><use xlink:href="#gc5NBzOrlwWaeaR7JPRV_pad-10" x="11250" y="9300"/><use xlink:href="#gc5NBzOrlwWaeaR7JPRV_pad-13" x="8100" y="11450"/><use xlink:href="#gc5NBzOrlwWaeaR7JPRV_pad-13" x="8100" y="9550"/><use xlink:href="#gc5NBzOrlwWaeaR7JPRV_pad-13" x="6000" y="10500"/><use xlink:href="#gc5NBzOrlwWaeaR7JPRV_pad-13" x="8100" y="8350"/><use xlink:href="#gc5NBzOrlwWaeaR7JPRV_pad-13" x="8100" y="6450"/><use xlink:href="#gc5NBzOrlwWaeaR7JPRV_pad-13" x="6000" y="7400"/><use xlink:href="#gc5NBzOrlwWaeaR7JPRV_pad-11" x="28550" y="6900"/><use xlink:href="#gc5NBzOrlwWaeaR7JPRV_pad-11" x="30250" y="6900"/><use xlink:href="#gc5NBzOrlwWaeaR7JPRV_pad-11" x="28550" y="8920"/><use xlink:href="#gc5NBzOrlwWaeaR7JPRV_pad-11" x="30250" y="8920"/><use xlink:href="#gc5NBzOrlwWaeaR7JPRV_pad-10" x="25250" y="1600"/><use xlink:href="#gc5NBzOrlwWaeaR7JPRV_pad-10" x="23550" y="1600"/><use xlink:href="#gc5NBzOrlwWaeaR7JPRV_pad-10" x="30250" y="4875"/><use xlink:href="#gc5NBzOrlwWaeaR7JPRV_pad-10" x="28550" y="4875"/><use xlink:href="#gc5NBzOrlwWaeaR7JPRV_pad-10" x="30350" y="1700"/><use xlink:href="#gc5NBzOrlwWaeaR7JPRV_pad-10" x="28650" y="1700"/><use xlink:href="#gc5NBzOrlwWaeaR7JPRV_pad-10" x="24500" y="7350"/><use xlink:href="#gc5NBzOrlwWaeaR7JPRV_pad-10" x="24500" y="9050"/><use xlink:href="#gc5NBzOrlwWaeaR7JPRV_pad-11" x="24150" y="5600"/><use xlink:href="#gc5NBzOrlwWaeaR7JPRV_pad-11" x="22450" y="5600"/><use xlink:href="#gc5NBzOrlwWaeaR7JPRV_pad-11" x="7250" y="2500"/><use xlink:href="#gc5NBzOrlwWaeaR7JPRV_pad-11" x="8950" y="2500"/><use xlink:href="#gc5NBzOrlwWaeaR7JPRV_pad-11" x="4050" y="12300"/><use xlink:href="#gc5NBzOrlwWaeaR7JPRV_pad-11" x="5750" y="12300"/><use xlink:href="#gc5NBzOrlwWaeaR7JPRV_pad-10" x="3810" y="8930"/><use xlink:href="#gc5NBzOrlwWaeaR7JPRV_pad-10" x="3810" y="10630"/><use xlink:href="#gc5NBzOrlwWaeaR7JPRV_pad-11" x="4650" y="2500"/><use xlink:href="#gc5NBzOrlwWaeaR7JPRV_pad-11" x="2950" y="2500"/><use xlink:href="#gc5NBzOrlwWaeaR7JPRV_pad-11" x="12950" y="6800"/><use xlink:href="#gc5NBzOrlwWaeaR7JPRV_pad-11" x="11250" y="6800"/><use xlink:href="#gc5NBzOrlwWaeaR7JPRV_pad-11" x="8950" y="4900"/><use xlink:href="#gc5NBzOrlwWaeaR7JPRV_pad-11" x="7250" y="4900"/></g></svg>