<svg version="1.1" xmlns="http://www.w3.org/2000/svg" xmlns:xlink="http://www.w3.org/1999/xlink" stroke-linecap="round" stroke-linejoin="round" stroke-width="0" fill-rule="evenodd" width="29.1152mm" height="20.8788mm" viewBox="1259.8 2810.6 29115.2 20878.8" id="lwUK-hAEB3nxJXNbjOVl"><defs><rect x="-330.2" y="-1016" width="660.4" height="2032" id="lwUK-hAEB3nxJXNbjOVl_pad-10"/><rect x="-345" y="-495" width="690" height="990" id="lwUK-hAEB3nxJXNbjOVl_pad-11"/><rect x="-775" y="-300" width="1550" height="600" id="lwUK-hAEB3nxJXNbjOVl_pad-12"/><rect x="-600" y="-300" width="1200" height="600" id="lwUK-hAEB3nxJXNbjOVl_pad-13"/></defs><g transform="translate(0,26500) scale(1,-1)" fill="currentColor" stroke="currentColor"><use xlink:href="#lwUK-hAEB3nxJXNbjOVl_pad-10" x="1590" y="16526.6"/><use xlink:href="#lwUK-hAEB3nxJXNbjOVl_pad-10" x="1590" y="22673.4"/><use xlink:href="#lwUK-hAEB3nxJXNbjOVl_pad-10" x="2860" y="16526.6"/><use xlink:href="#lwUK-hAEB3nxJXNbjOVl_pad-10" x="4130" y="16526.6"/><use xlink:href="#lwUK-hAEB3nxJXNbjOVl_pad-10" x="2860" y="22673.4"/><use xlink:href="#lwUK-hAEB3nxJXNbjOVl_pad-10" x="4130" y="22673.4"/><use xlink:href="#lwUK-hAEB3nxJXNbjOVl_pad-10" x="5400" y="16526.6"/><use xlink:href="#lwUK-hAEB3nxJXNbjOVl_pad-10" x="5400" y="22673.4"/><use xlink:href="#lwUK-hAEB3nxJXNbjOVl_pad-10" x="6670" y="16526.6"/><use xlink:href="#lwUK-hAEB3nxJXNbjOVl_pad-10" x="7940" y="16526.6"/><use xlink:href="#lwUK-hAEB3nxJXNbjOVl_pad-10" x="6670" y="22673.4"/><use xlink:href="#lwUK-hAEB3nxJXNbjOVl_pad-10" x="7940" y="22673.4"/><use xlink:href="#lwUK-hAEB3nxJXNbjOVl_pad-10" x="9210" y="16526.6"/><use xlink:href="#lwUK-hAEB3nxJXNbjOVl_pad-10" x="9210" y="22673.4"/><use xlink:href="#lwUK-hAEB3nxJXNbjOVl_pad-11" x="22250" y="21090"/><use xlink:href="#lwUK-hAEB3nxJXNbjOVl_pad-11" x="21300" y="21090"/><use xlink:href="#lwUK-hAEB3nxJXNbjOVl_pad-11" x="20350" y="21090"/><use xlink:href="#lwUK-hAEB3nxJXNbjOVl_pad-11" x="20350" y="18500"/><use xlink:href="#lwUK-hAEB3nxJXNbjOVl_pad-11" x="22250" y="18500"/><use xlink:href="#lwUK-hAEB3nxJXNbjOVl_pad-12" x="24200" y="21705"/><use xlink:href="#lwUK-hAEB3nxJXNbjOVl_pad-12" x="24200" y="20435"/><use xlink:href="#lwUK-hAEB3nxJXNbjOVl_pad-12" x="24200" y="19165"/><use xlink:href="#lwUK-hAEB3nxJXNbjOVl_pad-12" x="24200" y="17895"/><use xlink:href="#lwUK-hAEB3nxJXNbjOVl_pad-12" x="29600" y="17895"/><use xlink:href="#lwUK-hAEB3nxJXNbjOVl_pad-12" x="29600" y="19165"/><use xlink:href="#lwUK-hAEB3nxJXNbjOVl_pad-12" x="29600" y="20435"/><use xlink:href="#lwUK-hAEB3nxJXNbjOVl_pad-12" x="29600" y="21705"/><use xlink:href="#lwUK-hAEB3nxJXNbjOVl_pad-13" x="17300" y="17895"/><use xlink:href="#lwUK-hAEB3nxJXNbjOVl_pad-13" x="17300" y="19165"/><use xlink:href="#lwUK-hAEB3nxJXNbjOVl_pad-13" x="17300" y="20435"/><use xlink:href="#lwUK-hAEB3nxJXNbjOVl_pad-13" x="17300" y="21705"/><use xlink:href="#lwUK-hAEB3nxJXNbjOVl_pad-13" x="11700" y="21705"/><use xlink:href="#lwUK-hAEB3nxJXNbjOVl_pad-13" x="11700" y="20435"/><use xlink:href="#lwUK-hAEB3nxJXNbjOVl_pad-13" x="11700" y="19165"/><use xlink:href="#lwUK-hAEB3nxJXNbjOVl_pad-13" x="11700" y="17895"/><use xlink:href="#lwUK-hAEB3nxJXNbjOVl_pad-10" x="1590" y="3826.6"/><use xlink:href="#lwUK-hAEB3nxJXNbjOVl_pad-10" x="1590" y="9973.4"/><use xlink:href="#lwUK-hAEB3nxJXNbjOVl_pad-10" x="2860" y="3826.6"/><use xlink:href="#lwUK-hAEB3nxJXNbjOVl_pad-10" x="4130" y="3826.6"/><use xlink:href="#lwUK-hAEB3nxJXNbjOVl_pad-10" x="2860" y="9973.4"/><use xlink:href="#lwUK-hAEB3nxJXNbjOVl_pad-10" x="4130" y="9973.4"/><use xlink:href="#lwUK-hAEB3nxJXNbjOVl_pad-10" x="5400" y="3826.6"/><use xlink:href="#lwUK-hAEB3nxJXNbjOVl_pad-10" x="5400" y="9973.4"/><use xlink:href="#lwUK-hAEB3nxJXNbjOVl_pad-10" x="6670" y="3826.6"/><use xlink:href="#lwUK-hAEB3nxJXNbjOVl_pad-10" x="7940" y="3826.6"/><use xlink:href="#lwUK-hAEB3nxJXNbjOVl_pad-10" x="6670" y="9973.4"/><use xlink:href="#lwUK-hAEB3nxJXNbjOVl_pad-10" x="7940" y="9973.4"/><use xlink:href="#lwUK-hAEB3nxJXNbjOVl_pad-10" x="9210" y="3826.6"/><use xlink:href="#lwUK-hAEB3nxJXNbjOVl_pad-10" x="9210" y="9973.4"/><use xlink:href="#lwUK-hAEB3nxJXNbjOVl_pad-11" x="22250" y="8390"/><use xlink:href="#lwUK-hAEB3nxJXNbjOVl_pad-11" x="21300" y="8390"/><use xlink:href="#lwUK-hAEB3nxJXNbjOVl_pad-11" x="20350" y="8390"/><use xlink:href="#lwUK-hAEB3nxJXNbjOVl_pad-11" x="20350" y="5800"/><use xlink:href="#lwUK-hAEB3nxJXNbjOVl_pad-11" x="22250" y="5800"/><use xlink:href="#lwUK-hAEB3nxJXNbjOVl_pad-12" x="24200" y="9005"/><use xlink:href="#lwUK-hAEB3nxJXNbjOVl_pad-12" x="24200" y="7735"/><use xlink:href="#lwUK-hAEB3nxJXNbjOVl_pad-12" x="24200" y="6465"/><use xlink:href="#lwUK-hAEB3nxJXNbjOVl_pad-12" x="24200" y="5195"/><use xlink:href="#lwUK-hAEB3nxJXNbjOVl_pad-12" x="29600" y="5195"/><use xlink:href="#lwUK-hAEB3nxJXNbjOVl_pad-12" x="29600" y="6465"/><use xlink:href="#lwUK-hAEB3nxJXNbjOVl_pad-12" x="29600" y="7735"/><use xlink:href="#lwUK-hAEB3nxJXNbjOVl_pad-12" x="29600" y="9005"/><use xlink:href="#lwUK-hAEB3nxJXNbjOVl_pad-13" x="17300" y="5195"/><use xlink:href="#lwUK-hAEB3nxJXNbjOVl_pad-13" x="17300" y="6465"/><use xlink:href="#lwUK-hAEB3nxJXNbjOVl_pad-13" x="17300" y="7735"/><use xlink:href="#lwUK-hAEB3nxJXNbjOVl_pad-13" x="17300" y="9005"/><use xlink:href="#lwUK-hAEB3nxJXNbjOVl_pad-13" x="11700" y="9005"/><use xlink:href="#lwUK-hAEB3nxJXNbjOVl_pad-13" x="11700" y="7735"/><use xlink:href="#lwUK-hAEB3nxJXNbjOVl_pad-13" x="11700" y="6465"/><use xlink:href="#lwUK-hAEB3nxJXNbjOVl_pad-13" x="11700" y="5195"/></g></svg>